<?xml version="1.0" standalone="no"?>
<!DOCTYPE svg PUBLIC "-//W3C//DTD SVG 1.1//EN" "http://www.w3.org/Graphics/SVG/1.1/DTD/svg11.dtd" >
<svg xmlns="http://www.w3.org/2000/svg" xmlns:xlink="http://www.w3.org/1999/xlink" version="1.1">
<metadata>
Created by FontForge 20170731 at Fri Jun 11 00:11:54 2021
 By Aleksey,,,
Copyright 1997 International Typeface Corporation. All rights reserved.
</metadata>
<defs>
<font id="FrizQuadrataStd-BoldItalic" horiz-adv-x="1359" >
  <font-face 
    font-family="Friz Quadrata Std"
    font-weight="700"
    font-style="italic"
    font-stretch="normal"
    units-per-em="2048"
    panose-1="2 0 8 3 2 0 0 9 0 4"
    ascent="1638"
    descent="-410"
    x-height="981"
    cap-height="1423"
    bbox="-383 -512 2290 1970"
    underline-thickness="229"
    underline-position="-449"
    slope="-12"
    unicode-range="U+0020-FB02"
  />
<missing-glyph horiz-adv-x="1024" 
d="M25 0v1362h972v-1362h-972zM180 1266l332 -498l330 498h-662zM123 1178v-992q0 -1 82.5 123t164.5 249l83 124zM901 1178l-332 -496l332 -498v994zM842 98l-330 496l-332 -496h662z" />
    <glyph glyph-name="f_i" unicode="fi" horiz-adv-x="1337" 
d="M633 981h223q250 3 309 6q56 5 85 12t63 25l-154 -694q-14 -60 -14 -88q0 -29 16 -45.5t45 -16.5q33 0 86 19l-145 -187q-53 -24 -88.5 -32.5t-83.5 -8.5q-95 0 -146 49.5t-51 141.5q0 37 3.5 58t23.5 110l102 469h-315l-137 -615q-71 -337 -207 -501
q-57 -69 -150.5 -110.5t-193.5 -41.5q-117 0 -217 47l112 131q45 -28 84 -28q78 0 115 94q17 41 25 71t40 165q10 40 15 63l160 725h-140l183 188q26 133 62 209t101 135q60 55 157.5 88t197.5 33q52 0 137 -10l-115 -228q-31 39 -67 39q-34 0 -54.5 -31t-37.5 -106z
M1202 1479q78 0 126 -50t48 -133q0 -98 -56 -160.5t-144 -62.5q-85 0 -135 52.5t-50 140.5q0 97 57 155t154 58z" />
    <glyph glyph-name="f_l" unicode="fl" horiz-adv-x="1318" 
d="M633 981h186l-53 -236q-15 31 -39.5 42.5t-73.5 11.5h-61l-137 -615q-76 -347 -207 -501q-57 -69 -151.5 -111.5t-192.5 -42.5q-113 0 -217 49l112 131q45 -28 84 -28q78 0 115 94q18 44 27 78.5t51 220.5l162 725h-140l183 188q26 133 61.5 208.5t99.5 135.5
q133 121 369 121q78 0 313 -22q72 -7 111 -7q95 0 174 39l-250 -1132q-14 -60 -14 -88q0 -29 16 -45.5t45 -16.5q33 0 86 19l-145 -187q-86 -41 -176 -41q-88 0 -140.5 51.5t-52.5 137.5q0 38 3.5 59.5t23.5 110.5l194 880q-59 62 -165 62q-76 0 -114 -34t-58 -122z" />
    <glyph glyph-name=".notdef" horiz-adv-x="1024" 
d="M25 0v1362h972v-1362h-972zM180 1266l332 -498l330 498h-662zM123 1178v-992q0 -1 82.5 123t164.5 249l83 124zM901 1178l-332 -496l332 -498v994zM842 98l-330 496l-332 -496h662z" />
    <glyph glyph-name=".null" horiz-adv-x="0" 
 />
    <glyph glyph-name="nonmarkingreturn" horiz-adv-x="682" 
 />
    <glyph glyph-name="space" unicode=" " horiz-adv-x="501" 
 />
    <glyph glyph-name="exclam" unicode="!" horiz-adv-x="917" 
d="M436 1423h467q-21 -27 -32.5 -53t-32.5 -92l-207 -653q-21 -65 -21 -97q0 -8 6 -49h-272q20 33 27.5 63t13.5 95l59 623q7 71 7 86q0 34 -15 77zM446 385q85 0 135 -48t50 -130q0 -100 -59.5 -163.5t-153.5 -63.5q-88 0 -140.5 53.5t-52.5 142.5q0 92 61.5 150.5
t159.5 58.5z" />
    <glyph glyph-name="quotedbl" unicode="&#x22;" 
d="M678 868h-184l71 570h287zM1049 868h-185l72 570h285z" />
    <glyph glyph-name="numbersign" unicode="#" 
d="M745 1010h191l151 413h252l-153 -413h223l-57 -158h-224l-100 -272h223l-59 -158h-221l-156 -422h-250l154 422h-189l-155 -422h-250l154 422h-220l58 158h219l100 272h-219l57 158h222l149 413h252zM688 852l-100 -272h190l99 272h-189z" />
    <glyph glyph-name="dollar" unicode="$" horiz-adv-x="1081" 
d="M887 1640l-53 -243q120 -15 219 -60l-17 -262q-102 84 -169 115t-148 31q-69 0 -110.5 -30.5t-41.5 -82.5q0 -57 37 -100t187 -162q120 -95 165 -172.5t45 -186.5q0 -129 -66.5 -232.5t-189.5 -168.5q-97 -50 -243 -61l-51 -242h-134l54 246q-182 15 -293 71l-35 273
q126 -94 212.5 -131t178.5 -37q90 0 143.5 43.5t53.5 116.5q0 60 -36.5 106.5t-170.5 159.5q-126 102 -173.5 180t-47.5 180q0 182 131.5 290t367.5 120l54 239h131z" />
    <glyph glyph-name="percent" unicode="%" horiz-adv-x="1517" 
d="M559 1438q124 0 191 -66t67 -188q0 -172 -106 -284t-267 -112q-128 0 -201 68t-73 188q0 94 39 179t108 139q94 76 242 76zM526 1296q-54 0 -94.5 -79.5t-40.5 -184.5q0 -45 20.5 -70.5t55.5 -25.5q57 0 94 76t37 192q0 41 -20 66.5t-52 25.5zM1217 1423h186l-995 -1423
h-187zM1190 635q125 0 191.5 -65.5t66.5 -188.5q0 -172 -106 -283.5t-267 -111.5q-127 0 -200.5 69t-73.5 189q0 93 39 177t108 138q94 76 242 76zM1157 494q-54 0 -94.5 -80t-40.5 -183q0 -46 20.5 -72t55.5 -26q56 0 93.5 76t37.5 190q0 43 -20 69t-52 26z" />
    <glyph glyph-name="ampersand" unicode="&#x26;" horiz-adv-x="1572" 
d="M950 139q-114 -98 -206 -136t-216 -38q-209 0 -333.5 109.5t-124.5 292.5q0 168 100 279t326 196q-45 74 -61.5 123.5t-16.5 109.5q0 170 130 273.5t345 103.5q186 0 289.5 -77.5t103.5 -215.5q0 -79 -34.5 -149t-94.5 -113q-62 -45 -188 -100q147 -242 407 -594
q114 -150 187 -201.5t178 -54.5q-152 -137 -332 -137q-94 0 -169 37.5t-150 123.5q-27 30 -140 168zM618 649q-169 -50 -169 -198q0 -97 68 -162.5t169 -65.5q47 0 83 12.5t81 43.5q-46 65 -127.5 194.5t-104.5 175.5zM850 997q82 23 116.5 57t34.5 91q0 59 -37 98t-92 39
q-47 0 -77.5 -27.5t-30.5 -70.5q0 -40 19.5 -82t66.5 -105z" />
    <glyph glyph-name="quotesingle" unicode="'" horiz-adv-x="907" 
d="M637 868h-184l71 570h287z" />
    <glyph glyph-name="parenleft" unicode="(" horiz-adv-x="690" 
d="M688 1460h193q-108 -105 -174 -192t-129 -207q-181 -345 -181 -723q0 -287 109 -606h-162q-123 220 -175 387t-52 342q0 194 67 366.5t211 350.5q126 155 293 282z" />
    <glyph glyph-name="parenright" unicode=")" horiz-adv-x="690" 
d="M59 -268h-194q108 102 174 188t131 209q180 341 180 723q0 282 -110 608h163q122 -222 174 -389t52 -340q0 -195 -66.5 -365t-212.5 -352q-70 -90 -134.5 -152t-156.5 -130z" />
    <glyph glyph-name="asterisk" unicode="*" 
d="M760 1487h264l-72 -113l-45 -151l137 59l105 80l57 -258l-145 26l-146 -26l68 -105l113 -81l-228 -152l-14 147l-59 117l-113 -119l-72 -133l-166 168l144 70l110 94l-133 23l-131 -21l127 254l92 -88l111 -55l22 139z" />
    <glyph glyph-name="plus" unicode="+" 
d="M635 612h-399v199h399v385h199v-385h399v-199h-399v-385h-199v385z" />
    <glyph glyph-name="comma" unicode="," horiz-adv-x="657" 
d="M115 -258l-140 27q211 73 263 213q-175 24 -175 190q0 96 60.5 156.5t155.5 60.5q85 0 135.5 -48t50.5 -128q0 -140 -100 -275t-250 -196z" />
    <glyph glyph-name="hyphen" unicode="-" horiz-adv-x="747" 
d="M233 588h195q117 0 174 9t121 38l-186 -244h-99q-178 0 -245.5 -8t-149.5 -39z" />
    <glyph glyph-name="period" unicode="." horiz-adv-x="663" 
d="M291 385q85 0 134.5 -48t49.5 -130q0 -100 -59.5 -163.5t-153.5 -63.5q-88 0 -140 53.5t-52 142.5q0 92 61.5 150.5t159.5 58.5z" />
    <glyph glyph-name="slash" unicode="/" horiz-adv-x="1210" 
d="M1085 1475h218l-1090 -1610h-217z" />
    <glyph glyph-name="zero" unicode="0" 
d="M879 1452q243 0 368 -135t125 -395q0 -226 -76.5 -427.5t-212.5 -334.5q-94 -91 -219.5 -140t-263.5 -49q-196 0 -330 92q-182 130 -182 445q0 246 88.5 455t245.5 337q189 152 457 152zM836 1260q-120 0 -209 -203q-57 -127 -98.5 -327.5t-41.5 -346.5q0 -104 37 -161.5
t105 -57.5q119 0 202 180q54 118 98 332.5t44 367.5q0 104 -35.5 160t-101.5 56z" />
    <glyph glyph-name="one" unicode="1" horiz-adv-x="1349" 
d="M651 1098l-227 78q242 44 394 119t317 231l-269 -1213q-26 -110 -26 -178q0 -34 11 -60t46 -75h-590q75 59 108 119.5t62 193.5z" />
    <glyph glyph-name="two" unicode="2" 
d="M1190 260l-139 -260h-1088q115 119 574 606q205 219 271 314.5t66 169.5q0 62 -53 99.5t-141 37.5q-97 0 -183 -28.5t-186 -92.5l123 268q86 42 170 60t195 18q218 0 341.5 -93t123.5 -257q0 -112 -55 -220.5t-187 -258.5q-21 -25 -174 -181q-203 -206 -244 -247
q69 -5 127 -5q147 0 243 15t216 55z" />
    <glyph glyph-name="three" unicode="3" 
d="M346 680l47 207q86 -17 150 -17q157 0 245.5 57t88.5 158q0 79 -63 127t-167 48q-152 0 -307 -105l127 264q118 33 299 33q249 0 380.5 -88.5t131.5 -255.5q0 -85 -39.5 -156.5t-108.5 -111.5q-52 -32 -104.5 -46t-146.5 -22q68 -15 106.5 -31t75.5 -43q115 -89 115 -260
q0 -215 -184.5 -341t-499.5 -126q-200 0 -363 58l-45 245q82 -58 162 -84t178 -26q158 0 255 79t97 208q0 117 -82 177t-239 60q-49 0 -109 -8z" />
    <glyph glyph-name="four" unicode="4" 
d="M672 322h-715l893 1101h455q-15 -20 -25.5 -50t-32.5 -113l-166 -748h70q63 0 111.5 15.5t117.5 56.5l-129 -262h-213l-10 -50q-22 -96 -25.5 -115t-3.5 -40q0 -31 15 -56.5t53 -60.5h-567q78 47 104.5 92t57.5 180zM356 512h359l145 659z" />
    <glyph glyph-name="five" unicode="5" 
d="M432 1423h881l-84 -276q-119 65 -311 65q-93 0 -211 -14l-76 -342q79 16 141 16q212 0 333.5 -99t121.5 -271q0 -100 -40 -198.5t-108 -164.5q-80 -80 -209.5 -124t-287.5 -44q-211 0 -400 80l-61 275q130 -85 214 -116.5t183 -31.5q134 0 220.5 74.5t86.5 189.5
q0 119 -88 185.5t-245 66.5q-102 0 -222 -30z" />
    <glyph glyph-name="six" unicode="6" 
d="M1303 1452l-80 -164q-228 0 -404 -139q-143 -116 -229 -314t-86 -411q0 -121 43 -186.5t123 -65.5q94 0 156.5 107.5t62.5 267.5q0 92 -45 144t-125 52q-43 0 -103 -24l101 164q72 28 176 28q183 0 289 -105.5t106 -287.5q0 -157 -80 -279.5t-224.5 -190.5t-328.5 -68
q-257 0 -404 132.5t-147 364.5q0 212 114.5 413t313.5 337q316 216 771 225z" />
    <glyph glyph-name="seven" unicode="7" 
d="M455 1423h1028l-797 -1235q-43 -68 -43 -102q0 -26 37 -86h-557l797 1208q-183 13 -240 13q-136 0 -217.5 -18t-153.5 -64z" />
    <glyph glyph-name="eight" unicode="8" 
d="M1049 772q107 -70 156.5 -154.5t49.5 -193.5q0 -217 -166.5 -335t-472.5 -118q-266 0 -411.5 100t-145.5 283q0 139 82 235t260 163q-64 64 -91 127.5t-27 148.5q0 200 152 312t425 112q227 0 354 -89t127 -249q0 -72 -26.5 -137t-73.5 -111q-34 -33 -76 -53t-116 -41z
M913 860q131 77 131 207q0 86 -50 139.5t-132 53.5q-74 0 -120 -42.5t-46 -109.5q0 -72 51 -130t166 -118zM522 645q-88 -43 -127 -98.5t-39 -138.5q0 -110 73.5 -177t195.5 -67q98 0 157.5 44t59.5 116q0 55 -32.5 98t-123.5 108q-117 86 -164 115z" />
    <glyph glyph-name="nine" unicode="9" 
d="M172 -20l82 163q227 0 401 140q143 114 229.5 312t86.5 413q0 121 -43 186.5t-123 65.5q-92 0 -155.5 -108.5t-63.5 -266.5q0 -93 45.5 -145t126.5 -52q40 0 102 25l-100 -166q-86 -27 -180 -27q-149 0 -256 82q-72 56 -105 130t-33 183q0 236 177.5 386.5t455.5 150.5
q256 0 403.5 -133t147.5 -365q0 -212 -114.5 -412.5t-313.5 -336.5q-311 -216 -770 -225z" />
    <glyph glyph-name="colon" unicode=":" horiz-adv-x="663" 
d="M430 1008q85 0 134.5 -48t49.5 -131q0 -100 -59.5 -163.5t-153.5 -63.5q-88 0 -140 54t-52 143q0 92 61.5 150.5t159.5 58.5zM291 385q85 0 134.5 -48t49.5 -130q0 -100 -59.5 -163.5t-153.5 -63.5q-88 0 -140 53.5t-52 142.5q0 92 61.5 150.5t159.5 58.5z" />
    <glyph glyph-name="semicolon" unicode=";" horiz-adv-x="663" 
d="M430 1008q85 0 134.5 -48.5t49.5 -130.5q0 -100 -59.5 -163.5t-153.5 -63.5q-88 0 -140 54t-52 143q0 92 61.5 150.5t159.5 58.5zM115 -258l-140 27q211 73 263 213q-175 24 -175 190q0 96 60.5 156.5t155.5 60.5q85 0 135.5 -48t50.5 -128q0 -140 -100 -275t-250 -196z
" />
    <glyph glyph-name="less" unicode="&#x3c;" 
d="M1194 1257v-215l-694 -329l694 -330v-217l-926 455v184z" />
    <glyph glyph-name="equal" unicode="=" 
d="M1233 414h-997v198h997v-198zM1233 813h-997v199h997v-199z" />
    <glyph glyph-name="greater" unicode="&#x3e;" 
d="M270 1257l926 -452v-184l-926 -455v217l697 330l-697 329v215z" />
    <glyph glyph-name="question" unicode="?" horiz-adv-x="1067" 
d="M592 479h-240q0 127 40.5 192t168.5 142q172 111 172 238q0 74 -56 123t-142 49q-68 0 -130 -24.5t-143 -84.5l103 285q148 53 333 53q209 0 324 -89.5t115 -252.5q0 -168 -115 -283q-49 -51 -246 -155q-115 -58 -151.5 -88.5t-36.5 -67.5q0 -19 4 -37zM459 385
q85 0 134.5 -48t49.5 -130q0 -100 -59.5 -163.5t-153.5 -63.5q-88 0 -140 53.5t-52 142.5q0 92 61.5 150.5t159.5 58.5z" />
    <glyph glyph-name="at" unicode="@" horiz-adv-x="1720" 
d="M913 485l-96 -143q-41 -14 -84 -14q-107 0 -168 60.5t-61 166.5q0 116 54.5 228.5t146.5 187.5q135 112 335 112q49 0 170 -16q14 -2 50 -2q66 0 141 33l-150 -488q-22 -64 -22 -102q0 -35 41 -35q38 0 78.5 20t66.5 52q54 66 87.5 162t33.5 188q0 178 -144 295t-364 117
q-299 0 -488.5 -174t-189.5 -449q0 -259 167 -413t448 -154q143 0 259 42.5t249 143.5l-41 -192q-118 -74 -234.5 -107t-267.5 -33q-363 0 -576 185t-213 501q0 229 115 410.5t320 283t464 101.5q320 0 507.5 -149t187.5 -402q0 -252 -165 -417t-417 -165q-103 0 -156 39.5
t-53 116.5q0 41 25 123l98 322q-34 22 -59 22q-61 0 -105 -63q-46 -64 -75 -148.5t-29 -152.5q0 -43 23.5 -71t60.5 -28q9 0 30 6z" />
    <glyph glyph-name="A" unicode="A" horiz-adv-x="1396" 
d="M1083 1423l213 -1204q17 -102 32 -138.5t58 -80.5h-569q55 41 73.5 66t18.5 57q0 27 -6 61l-4 35l-29 205h-473l-82 -145q-88 -151 -88 -197q0 -17 10 -32.5t42 -49.5h-431q47 30 71.5 54.5t56 72.5t102.5 172l481 825q37 63 50.5 99.5t13.5 72.5q0 74 -70 127h530z
M508 623h332l-68 469z" />
    <glyph glyph-name="B" unicode="B" horiz-adv-x="1347" 
d="M274 1423h539q167 0 214.5 -3.5t107.5 -18.5q85 -25 133.5 -92.5t48.5 -159.5q0 -85 -32.5 -166.5t-86.5 -132.5q-41 -40 -90 -61t-129 -35q141 -15 214 -95t73 -219q0 -126 -61 -230.5t-161 -150.5q-85 -40 -172.5 -49.5t-363.5 -9.5h-549q75 59 108 119.5t62 193.5
l176 799q27 120 27 176q0 33 -11 58t-47 77zM719 1251l-90 -403q46 -4 53 -4q103 0 168 75.5t65 194.5q0 73 -40.5 105t-133.5 32h-22zM588 659l-99 -450q57 -16 109 -16q120 0 193 69t73 184q0 100 -63.5 159t-173.5 59q-19 0 -39 -5z" />
    <glyph glyph-name="C" unicode="C" horiz-adv-x="1292" 
d="M1260 324l-152 -275q-172 -78 -373 -78q-296 0 -467.5 162t-171.5 442q0 196 76.5 375.5t210.5 298.5q232 203 596 203q99 0 176.5 -12.5t171.5 -44.5l-35 -301q-118 153 -301 153q-135 0 -245.5 -85t-173 -234.5t-62.5 -333.5q0 -197 90.5 -307.5t251.5 -110.5
q92 0 183 33t225 115z" />
    <glyph glyph-name="D" unicode="D" horiz-adv-x="1476" 
d="M592 0h-633q75 59 108 119.5t62 193.5l176 797q27 123 27 178q0 33 -11 58t-47 77h621q138 0 232 -21.5t165 -70.5q98 -64 149.5 -183t51.5 -280q0 -224 -93.5 -418.5t-256.5 -310.5q-106 -75 -232.5 -107t-318.5 -32zM723 1243l-229 -1036q75 -21 131 -21
q124 0 228.5 97t165 264.5t60.5 365.5q0 340 -280 340q-35 0 -76 -10z" />
    <glyph glyph-name="E" unicode="E" horiz-adv-x="1097" 
d="M1108 1423l-70 -321q-10 34 -21.5 53.5t-30 34t-55.5 20t-83.5 8t-128.5 1.5l-82 -365h135q114 0 172 18l-72 -327q-15 66 -41.5 82t-119.5 16h-121l-88 -399q55 -25 105 -34t130 -9q121 0 193 25t174 102l-168 -328h-977q74 57 107.5 118.5t62.5 194.5l176 797
q27 120 27 178q0 33 -11 58t-47 77h834z" />
    <glyph glyph-name="F" unicode="F" horiz-adv-x="1040" 
d="M1151 1423l-70 -319q-7 23 -12.5 36.5t-15 27.5t-21.5 20.5t-31 14.5t-43 9.5t-59 5t-79 1.5t-101 0l-84 -379h176q107 0 174 18l-74 -328q-15 66 -42 82.5t-119 16.5h-162l-70 -316q-26 -110 -26 -178q0 -34 11 -60t46 -75h-590q75 59 108 119.5t62 193.5l176 797
q27 120 27 178q0 33 -11 58t-47 77h877z" />
    <glyph glyph-name="G" unicode="G" horiz-adv-x="1443" 
d="M1403 1391l-43 -318q-125 174 -352 174q-223 0 -361.5 -174t-138.5 -455q0 -209 88 -329.5t240 -120.5q22 0 57 6l51 227q26 121 30.5 147t4.5 58q0 35 -16 62.5t-56 64.5h529q-36 -59 -48.5 -95.5t-39.5 -156.5l-45 -200q-25 -119 -25 -181q0 -22 8 -55
q-209 -74 -502 -74q-328 0 -509 163.5t-181 459.5q0 209 91.5 394t252.5 300q229 164 570 164q212 0 395 -61z" />
    <glyph glyph-name="H" unicode="H" horiz-adv-x="1521" 
d="M1006 649h-414l-74 -336q-26 -120 -26 -178q0 -34 11 -60t46 -75h-590q75 59 108 119.5t62 193.5l176 797q27 123 27 178q0 33 -11 58t-47 77h590q-73 -55 -107.5 -119t-62.5 -194l-51 -252h410l55 252q27 117 27 178q0 33 -11 58t-47 77h590q-74 -57 -107.5 -118.5
t-62.5 -194.5l-176 -797q-27 -123 -27 -178q0 -34 11.5 -61t46.5 -74h-590q75 59 108 119.5t62 193.5z" />
    <glyph glyph-name="I" unicode="I" horiz-adv-x="718" 
d="M549 0h-590q74 59 107.5 120t62.5 193l176 797q27 120 27 178q0 33 -11 58t-47 77h590q-75 -57 -108 -118t-62 -195l-176 -797q-26 -110 -26 -178q0 -34 11 -60t46 -75z" />
    <glyph glyph-name="J" unicode="J" horiz-adv-x="770" 
d="M766 1110l-197 -891q-57 -252 -83 -333.5t-70 -147.5q-65 -92 -165 -136t-247 -44q-74 0 -203 18q55 16 93.5 35t74.5 54t61 79.5t52.5 119.5t51 165t54.5 225l191 856q27 124 27 178q0 33 -11 58t-47 77h588q-74 -57 -107.5 -118.5t-62.5 -194.5z" />
    <glyph glyph-name="K" unicode="K" horiz-adv-x="1468" 
d="M1124 1423h437q-14 -13 -40 -35.5t-38 -33.5l-74 -70l-498 -469l88 -162q23 -42 83 -149t92 -166q84 -154 145.5 -232.5t118.5 -103.5q-153 -31 -258 -31q-205 0 -283 78q-31 29 -51 65t-111 220l-147 295l-70 -316q-26 -110 -26 -178q0 -34 11 -60t46 -75h-590
q74 59 107.5 120t62.5 193l176 797q27 120 27 178q0 33 -11 58t-47 77h590q-75 -57 -108 -118t-62 -195l-65 -291l418 418q81 82 94.5 98t13.5 35q0 22 -31 53z" />
    <glyph glyph-name="L" unicode="L" horiz-adv-x="1091" 
d="M694 1110l-192 -866q85 -43 217 -43q107 0 180.5 27t171.5 102l-168 -330h-944q74 57 107.5 118.5t62.5 194.5l176 797q27 123 27 178q0 33 -11 58t-47 77h590q-74 -57 -107.5 -118.5t-62.5 -194.5z" />
    <glyph glyph-name="M" unicode="M" horiz-adv-x="1888" 
d="M858 -29l-43 39q-94 78 -124.5 134.5t-55.5 197.5l-107 569l-176 -614q-37 -130 -37 -176q0 -59 62 -121h-424q70 45 96 85t62 151l249 837q58 205 60 222v12q0 27 -13 51.5t-49 64.5h451q-2 -18 -2 -41q0 -66 35 -235l108 -590l338 582q36 66 49 92q48 84 66 127l31 65
h508q-75 -66 -102 -124t-40 -187l-88 -799q-8 -73 -8 -120q0 -66 14 -103.5t60 -89.5h-586q65 54 93.5 119.5t43.5 193.5l66 596z" />
    <glyph glyph-name="N" unicode="N" horiz-adv-x="1460" 
d="M1235 137l68 -137q-60 -14 -127 -14q-74 0 -126 11t-97 36t-83.5 74.5t-75 117.5t-81.5 174l-238 559l-143 -645q-27 -132 -27 -178q0 -33 11.5 -60t45.5 -75h-417q74 59 107.5 120t62.5 193l176 797q26 116 26 178q0 69 -61 135h467q16 -61 63 -182l310 -747l137 616
q27 126 27 178q0 33 -11 59t-47 76h418q-74 -57 -107.5 -118.5t-62.5 -194.5z" />
    <glyph glyph-name="O" unicode="O" horiz-adv-x="1490" 
d="M930 1452q277 0 430 -156q135 -135 135 -417q0 -201 -59 -370.5t-165.5 -287.5t-259.5 -184t-335 -66q-275 0 -422.5 149t-147.5 427q0 191 62.5 369.5t171.5 300.5q209 235 590 235zM883 1262q-154 0 -262 -252q-44 -105 -72.5 -252t-28.5 -275q0 -149 52.5 -235
t142.5 -86q167 0 274 268q40 101 65 244t25 266q0 322 -196 322z" />
    <glyph glyph-name="P" unicode="P" horiz-adv-x="1253" 
d="M725 1253l-207 -940q-26 -120 -26 -178q0 -33 11.5 -60t45.5 -75h-590q75 59 108 119.5t62 193.5l176 797q27 123 27 178q0 33 -11 58t-47 77h510q189 0 277 -13.5t151 -51.5q57 -34 89 -102.5t32 -153.5q0 -211 -137.5 -342t-357.5 -131q-120 0 -224 43q119 5 179 63
q55 55 87.5 147t32.5 191q0 88 -39 134t-114 46h-35z" />
    <glyph glyph-name="Q" unicode="Q" horiz-adv-x="1490" 
d="M1130 94q107 -175 233.5 -271.5t248.5 -96.5q26 0 49 4q-95 -92 -176 -131t-176 -39q-135 0 -261 92t-305 321q-33 -2 -67 -2q-145 0 -263 46t-188 130q-119 144 -119 404q0 189 62 365.5t172 300.5q101 114 251 174.5t331 60.5q285 0 438 -156q135 -135 135 -417
q0 -264 -92.5 -464t-272.5 -321zM883 1262q-154 0 -262 -252q-44 -105 -72.5 -252t-28.5 -275q0 -149 52.5 -235t142.5 -86q167 0 274 268q40 101 65 244t25 266q0 322 -196 322z" />
    <glyph glyph-name="R" unicode="R" horiz-adv-x="1386" 
d="M541 0h-582q75 59 108 119.5t62 193.5l176 797q27 120 27 178q0 33 -11 58t-47 77h557q261 0 363 -51q65 -34 104 -109.5t39 -166.5q0 -89 -33 -175t-87 -137q-46 -43 -102.5 -62t-147.5 -20l75 -163q131 -280 193.5 -386t122.5 -153q-127 -14 -207 -14q-204 0 -287 75
q-41 36 -75 102t-97 226l-104 273l-78 -349q-27 -135 -27 -178q0 -33 12 -61t46 -74zM717 1243l-109 -485q24 -8 49 -8q114 0 189.5 97t75.5 245q0 151 -187 151h-18z" />
    <glyph glyph-name="S" unicode="S" horiz-adv-x="1103" 
d="M1100 1384l-17 -282q-109 92 -181.5 126t-160.5 34q-77 0 -122.5 -34t-45.5 -91q0 -60 41.5 -108t200.5 -175q129 -103 177 -184.5t48 -198.5q0 -217 -163.5 -358.5t-413.5 -141.5q-235 0 -410 82l-39 293q134 -101 228 -142.5t192 -41.5t158.5 48t60.5 126
q0 66 -39 116.5t-184 170.5q-135 112 -186 196t-51 191q0 202 153.5 322t413.5 120q177 0 340 -68z" />
    <glyph glyph-name="T" unicode="T" horiz-adv-x="1173" 
d="M1386 1438l-139 -314q-45 51 -88.5 70.5t-107.5 19.5h-121l-199 -901q-26 -117 -26 -178q0 -33 11.5 -60t45.5 -75h-590q74 57 107.5 118.5t62.5 194.5l199 895q-76 11 -117 11q-79 0 -143.5 -18t-137.5 -60l146 303q70 -21 200 -21h615q127 0 171 2.5t111 12.5z" />
    <glyph glyph-name="U" unicode="U" horiz-adv-x="1482" 
d="M801 0l49 135q-102 -96 -184.5 -130t-214.5 -34q-159 0 -246 72q-47 38 -73 92.5t-26 114.5q0 56 27 178l152 682q26 121 26 178q0 34 -11 60t-46 75h590q-75 -57 -108 -118t-62 -195l-119 -530q-39 -182 -39 -244q0 -66 41 -102.5t113 -36.5q69 0 123.5 30.5t83.5 85.5
q27 51 61 195l133 602q27 117 27 178q0 33 -11.5 60t-46.5 75h590q-75 -57 -108 -118t-62 -195l-176 -797q-27 -120 -27 -178q0 -34 11.5 -61t46.5 -74h-514z" />
    <glyph glyph-name="V" unicode="V" horiz-adv-x="1226" 
d="M678 451l401 743q62 111 62 158q0 34 -45 71h364q-31 -51 -71 -125l-43 -75l-711 -1252l-53 31q-107 62 -140.5 85t-60.5 56q-23 34 -37 95t-33 211l-92 735q-17 102 -34 148.5t-54 90.5h465q-4 -27 -4 -67q0 -99 12 -207z" />
    <glyph glyph-name="W" unicode="W" horiz-adv-x="2086" 
d="M1499 449l424 761q49 87 49 133q0 23 -10 40.5t-35 39.5h363q-55 -93 -74 -129l-62 -108l-698 -1215l-147 78q-100 54 -130.5 110.5t-33.5 194.5l-8 445l-416 -828l-146 72q-48 24 -76.5 44t-50.5 44t-34 60.5t-20.5 80t-16.5 117.5l-90 756q-20 130 -37.5 179t-61.5 99
h457q-6 -53 -6 -73q0 -61 12 -179l86 -727l379 766q-30 147 -69 213h462q-30 -67 -30 -157q0 -24 2 -47v-39z" />
    <glyph glyph-name="X" unicode="X" horiz-adv-x="1380" 
d="M709 1423l178 -450l209 239q98 112 98 154q0 26 -39 57h395q-10 -10 -26 -30q-46 -48 -127 -142l-434 -481l108 -281q89 -225 148 -333.5t120 -155.5q-154 -29 -256 -29q-130 0 -210 63t-134 208l-118 315l-297 -344q-64 -73 -81.5 -98.5t-17.5 -44.5q0 -30 37 -70h-403
q78 78 159 170l525 582l-129 333q-49 138 -88 208t-99 130h482z" />
    <glyph glyph-name="Y" unicode="Y" horiz-adv-x="1245" 
d="M815 887l240 356q51 81 51 113t-41 67h383q-21 -27 -52 -67t-50 -64.5t-29 -38.5l-443 -612l-73 -328q-25 -129 -25 -178q0 -34 11 -61t44 -74h-575q75 57 109 119t63 194l72 326q-44 179 -164 421t-219 353q121 39 215 39q128 0 205 -52.5t141 -182.5q16 -33 137 -330z
" />
    <glyph glyph-name="Z" unicode="Z" horiz-adv-x="1267" 
d="M1063 0h-1149q5 8 30.5 42.5t45.5 63.5q7 11 26.5 37.5t28.5 40.5l748 1041q-65 8 -115 8q-236 0 -447 -133l160 323h1004l-17 -20l-57 -84l-29 -41l-760 -1059q81 -8 160 -8q186 0 312 34t258 120z" />
    <glyph glyph-name="bracketleft" unicode="[" horiz-adv-x="690" 
d="M846 1460l-31 -141h-164l-321 -1448h164l-31 -139h-508q24 17 35.5 25t26 26.5t20 30t16.5 49t18 67t23 99.5l252 1140q31 141 31 193q0 32 -12 53.5t-43 44.5h524z" />
    <glyph glyph-name="backslash" unicode="\" horiz-adv-x="1210" 
d="M549 1475l387 -1610h-186l-388 1610h187z" />
    <glyph glyph-name="bracketright" unicode="]" horiz-adv-x="690" 
d="M-100 -268l30 139h164l322 1448h-164l31 141h508q-26 -19 -36 -26.5t-25.5 -26t-20.5 -30.5t-16.5 -47.5t-19 -68t-22.5 -100.5l-252 -1141q-22 -114 -26 -139t-4 -53q0 -31 12 -52t43 -44h-524z" />
    <glyph glyph-name="asciicircum" unicode="^" horiz-adv-x="1067" 
d="M412 723h-344l301 711h434l301 -711h-342l-176 446z" />
    <glyph glyph-name="underscore" unicode="_" horiz-adv-x="1067" 
d="M51 -106h1067v-230h-1067v230z" />
    <glyph glyph-name="grave" unicode="`" horiz-adv-x="1075" 
d="M387 1546l416 -395l-105 -41l-475 291z" />
    <glyph glyph-name="a" unicode="a" horiz-adv-x="1222" 
d="M621 174l-105 -184q-78 -17 -125 -17q-161 0 -254.5 97t-93.5 264q0 143 61 283.5t164 234.5q169 156 459 156h20h16t16 -0.5t13.5 -1l16.5 -1.5t17.5 -2t23 -3t26.5 -3t35 -4.5t41 -5.5q36 -4 68 -4q96 0 186 41l-153 -694q-13 -67 -13 -86q0 -64 68 -64q41 0 94 19
l-145 -187q-93 -41 -176 -41q-103 0 -159 49t-56 140q0 38 4 64.5t22 105.5l103 461q-57 34 -103 34q-41 0 -82 -25.5t-69 -68.5q-52 -79 -82.5 -181.5t-30.5 -199.5q0 -83 41.5 -131.5t112.5 -48.5q23 0 39 4z" />
    <glyph glyph-name="b" unicode="b" horiz-adv-x="1228" 
d="M594 762l137 219q74 27 143 27q151 0 230.5 -94.5t79.5 -272.5q0 -158 -71 -296.5t-198 -229.5q-200 -142 -532 -142q-119 0 -191.5 14t-189.5 60q30 30 43.5 57.5t26.5 90.5q2 9 12 59l201 901q24 124 24 158q0 52 -53 108q317 2 372 10q40 6 91 31l-283 -1274
q50 -32 103 -32q109 0 183.5 125.5t74.5 310.5q0 97 -31.5 141.5t-99.5 44.5q-28 0 -72 -16z" />
    <glyph glyph-name="c" unicode="c" horiz-adv-x="968" 
d="M942 287l-131 -254q-157 -60 -334 -60q-432 0 -432 389q0 135 51 255t138.5 206t210 135.5t260.5 49.5q137 0 216.5 -47.5t79.5 -129.5q0 -67 -53 -112t-133 -45q-77 0 -123 35q43 35 43 71q0 45 -59 45q-62 0 -119 -64t-91 -169.5t-34 -222.5q0 -100 48.5 -156.5
t133.5 -56.5t162.5 31t165.5 100z" />
    <glyph glyph-name="d" unicode="d" horiz-adv-x="1202" 
d="M616 174l-106 -188q-69 -13 -125 -13q-164 0 -255 96t-91 271q0 145 59.5 281.5t165.5 234.5q85 78 185.5 115t230.5 37q68 0 151 -15l37 162q25 129 25 158q0 52 -53 108q54 1 123.5 1.5t111 1t66.5 1.5q55 3 84 10t65 27l-250 -1132q-14 -57 -14 -86q0 -64 61 -64
q34 0 109 19l-145 -187q-83 -41 -179 -41q-103 0 -158 49.5t-55 141.5q0 37 3.5 58t23.5 110l100 456q-42 39 -96 39q-41 0 -81.5 -25.5t-71.5 -70.5q-51 -78 -82 -182.5t-31 -202.5q0 -83 39 -128.5t108 -45.5q25 0 45 4z" />
    <glyph glyph-name="e" unicode="e" horiz-adv-x="1042" 
d="M954 340l-69 -266q-219 -101 -424 -101q-202 0 -312 95t-110 270q0 184 91 338t248.5 243t344.5 89q157 0 248.5 -59.5t91.5 -160.5q0 -93 -78.5 -180t-210.5 -141q-129 -51 -344 -72q2 -81 23 -139q15 -44 57 -71t96 -27q97 0 179.5 43.5t168.5 138.5zM446 528
q96 13 168 72q46 35 73.5 77t27.5 77q0 25 -20 41t-50 16q-70 0 -124.5 -77t-74.5 -206z" />
    <glyph glyph-name="f" unicode="f" horiz-adv-x="753" 
d="M639 981h258l-51 -236q-17 31 -41.5 42.5t-71.5 11.5h-135l-135 -615q-75 -338 -207 -501q-59 -71 -153 -112.5t-195 -41.5q-123 0 -221 49l112 131q45 -28 84 -28q78 0 115 94q17 41 25 71t40 165q10 40 15 63l160 725h-140l183 188q26 133 62 208.5t101 135.5
q133 121 371 121q132 0 242 -37l-156 -217q-42 74 -110 74q-46 0 -74 -36t-47 -120z" />
    <glyph glyph-name="g" unicode="g" horiz-adv-x="1150" 
d="M1188 1024l-201 -909q-42 -190 -71 -265.5t-87 -146.5q-63 -78 -168 -120t-239 -42q-189 0 -309.5 69.5t-120.5 178.5q0 72 49.5 118t126.5 46q84 0 151 -55q-53 -23 -53 -76q0 -37 32 -60.5t81 -23.5q52 0 95.5 29.5t66.5 80.5q38 86 84 295l143 643q-43 25 -84 25
q-64 0 -121.5 -57t-92 -152t-34.5 -201q0 -91 38 -139.5t108 -48.5q12 0 24 2l-108 -186q-59 -11 -97 -11q-74 0 -119 11t-87 39q-146 93 -146 286q0 123 44 241.5t124 209.5q93 105 211.5 154t280.5 49q89 0 219 -19q75 -10 108 -10q78 0 152 45z" />
    <glyph glyph-name="h" unicode="h" horiz-adv-x="1228" 
d="M711 1462l-133 -596q84 87 146 119.5t146 32.5q120 0 197.5 -72t77.5 -182q0 -55 -23 -156l-61 -278q-12 -64 -12 -86q0 -64 61 -64q28 0 100 19l-145 -187q-90 -41 -176 -41q-103 0 -159 49t-56 140q0 37 3.5 60t22.5 110l62 272q12 66 12 80q0 40 -23 62t-65 22
q-41 0 -76.5 -18.5t-52.5 -49.5q-26 -48 -57 -186l-45 -199q-31 -152 -31 -202q0 -49 33 -111h-504q56 53 83 113.5t58 199.5l187 842q24 113 24 160q0 50 -53 106q282 2 341.5 7t117.5 34z" />
    <glyph glyph-name="i" unicode="i" horiz-adv-x="647" 
d="M623 1024l-154 -694q-14 -60 -14 -88q0 -62 63 -62q33 0 86 19l-145 -187q-90 -41 -185 -41q-94 0 -143 49.5t-49 143.5q0 35 4 61t23 105l86 389q24 114 24 158q0 52 -53 108q244 3 307 4q55 3 85.5 10t64.5 25zM500 1483q85 0 135.5 -51t50.5 -136q0 -98 -60.5 -161.5
t-154.5 -63.5q-89 0 -143 53t-54 142q0 99 61.5 158t164.5 59z" />
    <glyph glyph-name="j" unicode="j" horiz-adv-x="659" 
d="M651 1026l-192 -876q-58 -253 -89.5 -335.5t-93.5 -138.5q-112 -106 -356 -106q-62 0 -133 10q51 30 83.5 54t62.5 57.5t49 68t39 92.5t36 122.5t37 166.5l129 578q25 129 25 158q0 55 -53 108q236 3 307 4q57 3 85.5 10t63.5 27zM535 1483q85 0 135.5 -51t50.5 -136
q0 -99 -60 -162t-155 -63q-89 0 -143 53t-54 142q0 99 61.5 158t164.5 59z" />
    <glyph glyph-name="k" unicode="k" horiz-adv-x="1169" 
d="M702 1462l-129 -585q164 131 338 131q116 0 183 -64t67 -174q0 -116 -77.5 -195t-213.5 -104l95 -184q87 -169 121 -217.5t83 -69.5q-156 -27 -262 -27q-138 0 -202 58q-30 27 -44.5 51t-72.5 143l-111 219l-31 -137q-30 -138 -30 -198q0 -48 35 -109h-498
q55 51 82.5 111t56.5 196l189 848q24 108 24 158q0 52 -53 108q276 2 334 7t116 34zM500 532q57 -8 88 -8q90 0 145 39.5t55 102.5q0 44 -26 71t-70 27q-72 0 -116 -53.5t-76 -178.5z" />
    <glyph glyph-name="l" unicode="l" horiz-adv-x="618" 
d="M709 1462l-250 -1132q-15 -64 -15 -88q0 -29 16.5 -45.5t47.5 -16.5q33 0 86 19l-145 -187q-93 -41 -179 -41q-93 0 -145.5 50.5t-52.5 140.5q0 38 4 63t22 105l183 825q24 124 24 158q0 55 -53 108q313 2 368 10q40 6 89 31z" />
    <glyph glyph-name="m" unicode="m" horiz-adv-x="1832" 
d="M627 1024l-35 -158q82 82 154.5 117t158.5 35q97 0 158 -41.5t98 -130.5q83 95 153 133.5t161 38.5q119 0 195.5 -71t76.5 -181q0 -61 -12 -123l-70 -313q-12 -56 -12 -86q0 -64 61 -64q33 0 86 19l-145 -187q-90 -41 -174 -41q-96 0 -149.5 50.5t-53.5 140.5
q0 55 25 168l61 276q14 55 14 90q0 32 -23 51t-61 19q-72 0 -110.5 -48.5t-67.5 -176.5l-49 -228q-33 -135 -33 -202q0 -50 35 -111h-506q56 53 83.5 114t58.5 199l69 308q8 46 8 71q0 34 -23 54t-61 20q-72 0 -112.5 -54.5t-69.5 -189.5l-47 -209q-31 -152 -31 -202
q0 -49 33 -111h-504q56 53 83.5 114t58.5 199l90 406q24 117 24 158q0 52 -53 108q192 0 307 2q54 3 84 10.5t66 26.5z" />
    <glyph glyph-name="n" unicode="n" horiz-adv-x="1243" 
d="M627 1024l-35 -158q84 87 146.5 119.5t146.5 32.5q120 0 197 -72t77 -182q0 -60 -22 -156l-62 -278q-12 -64 -12 -86q0 -64 61 -64q33 0 86 19l-145 -187q-93 -41 -172 -41q-96 0 -150.5 50.5t-54.5 138.5q0 38 3.5 59.5t23.5 110.5l57 258q16 71 16 106q0 37 -24 58.5
t-64 21.5q-68 0 -110 -54t-70 -177l-51 -230q-31 -152 -31 -202q0 -49 33 -111h-504q56 53 83.5 114t58.5 199l90 406q24 117 24 158q0 52 -53 108q192 0 307 2q54 3 84 10.5t66 26.5z" />
    <glyph glyph-name="o" unicode="o" horiz-adv-x="1202" 
d="M682 1008q231 0 355 -110t124 -314q0 -155 -68.5 -292.5t-187.5 -219.5q-143 -99 -354 -99q-243 0 -367.5 106.5t-124.5 313.5q0 141 52.5 267t144.5 208q158 140 426 140zM666 825q-61 0 -114.5 -63.5t-84.5 -171t-31 -232.5q0 -202 123 -202q107 0 166 157
q26 67 42.5 156.5t16.5 161.5q0 194 -118 194z" />
    <glyph glyph-name="p" unicode="p" horiz-adv-x="1230" 
d="M512 47l-29 195q50 -31 99 -31q96 0 147 94q68 130 68 311q0 73 -30 114.5t-83 41.5q-68 0 -105.5 -64.5t-78.5 -252.5l-129 -580q-31 -148 -31 -203q0 -48 33 -110h-504q55 51 82.5 112.5t58.5 200.5l187 844q26 113 26 155q0 56 -55 111q192 0 309 2q53 3 83 10.5
t67 26.5l-35 -158q57 74 125 108t160 34q149 0 228 -93t79 -268q0 -121 -37 -236t-105 -208q-137 -189 -370 -189q-90 0 -160 33z" />
    <glyph glyph-name="q" unicode="q" horiz-adv-x="1179" 
d="M612 217l-110 -186q-76 -11 -121 -11q-149 0 -234.5 93.5t-85.5 257.5q0 155 66.5 292t185.5 226q162 119 389 119q58 0 269 -21q20 -2 57 -2q78 0 166 39l-254 -1149q-24 -115 -28.5 -143t-4.5 -60q0 -49 35 -110h-504q55 52 82.5 112.5t59.5 200.5l200 911
q-47 39 -88 39q-98 0 -172 -126t-74 -293q0 -91 36 -141t102 -50q14 0 28 2z" />
    <glyph glyph-name="r" unicode="r" horiz-adv-x="829" 
d="M932 1006l-66 -304q-57 43 -118 43q-53 0 -99.5 -26.5t-73.5 -71.5q-49 -80 -77 -211l-29 -123q-31 -152 -31 -202q0 -49 33 -111h-504q56 53 83.5 114t58.5 199l90 406q24 117 24 158q0 52 -53 108q53 -4 250 -4q90 0 125 6t82 29l-47 -203q65 102 137.5 148.5
t167.5 46.5q29 0 47 -2z" />
    <glyph glyph-name="s" unicode="s" horiz-adv-x="960" 
d="M915 958l-28 -227q-141 109 -260 109q-51 0 -83 -22.5t-32 -59.5q0 -63 96 -115q107 -59 143 -84t66 -61q55 -61 55 -160q0 -161 -131 -263t-340 -102q-196 0 -356 54l2 243q69 -67 144 -98t169 -31q69 0 111.5 25t42.5 65q0 56 -100 107q-105 53 -145.5 81t-73.5 70
q-56 71 -56 162q0 164 127 260.5t342 96.5q170 0 307 -50z" />
    <glyph glyph-name="t" unicode="t" horiz-adv-x="718" 
d="M498 1296h149l-69 -315h243l-57 -258q-28 43 -57 59.5t-76 16.5h-70l-86 -391q-20 -91 -20 -127q0 -47 34 -76t89 -29q12 0 79 6l-94 -174q-98 -33 -203 -33q-126 0 -200 68t-74 184q0 43 25 168l90 404h-109l35 159q292 27 371 338z" />
    <glyph glyph-name="u" unicode="u" horiz-adv-x="1228" 
d="M1202 203l-143 -189q-96 -41 -182 -41q-185 0 -211 160q-132 -160 -318 -160q-110 0 -184 71.5t-74 178.5q0 36 16 117l84 379q27 126 27 158q0 53 -55 108q238 3 309 4q55 3 84.5 10t65.5 25l-138 -616q-20 -92 -20 -123q0 -68 74 -68q85 0 127 64q30 50 51 149l63 289
q25 125 25 158q0 52 -53 108q241 3 309 4q55 3 84 9.5t65 25.5l-149 -670q-17 -73 -17 -116q0 -56 60 -56q36 0 100 21z" />
    <glyph glyph-name="v" unicode="v" horiz-adv-x="1032" 
d="M621 1024l-154 -690q-10 -48 -10 -68q0 -59 57 -59q73 0 148 68t123.5 173t48.5 207q0 69 -32.5 111.5t-84.5 42.5q-26 0 -55 -23q-5 13 -5 29q0 84 55.5 138.5t141.5 54.5q95 0 151 -63.5t56 -170.5q0 -145 -66 -299t-180 -274q-216 -228 -487 -228q-120 0 -182 51.5
t-62 149.5q0 58 18 150l88 395q25 127 25 158q0 52 -53 108q194 0 309 2q53 3 83 10.5t67 26.5z" />
    <glyph glyph-name="w" unicode="w" horiz-adv-x="1615" 
d="M1200 1024l-153 -690q-9 -56 -9 -68q0 -59 58 -59q72 0 146.5 68t122.5 173t48 207q0 69 -31.5 111.5t-83.5 42.5q-26 0 -55 -23q-4 14 -4 31q0 82 56 136.5t139 54.5q95 0 150.5 -63.5t55.5 -170.5q0 -147 -62 -294t-161.5 -257.5t-232 -180t-266.5 -69.5
q-107 0 -166.5 41.5t-81.5 132.5q-74 -92 -148.5 -133t-169.5 -41q-115 0 -189.5 70t-74.5 178q0 38 16 113l86 385q25 127 25 155q0 58 -53 111q192 0 307 2q53 3 83 10.5t66 26.5l-137 -616q-18 -92 -18 -125q0 -31 19.5 -48.5t54.5 -17.5q67 0 104.5 43.5t60.5 147.5
l70 311q25 125 25 158q0 54 -54 108q193 0 308 2q53 3 83 10.5t66 26.5z" />
    <glyph glyph-name="x" unicode="x" horiz-adv-x="1142" 
d="M772 543l113 -236q63 -141 103 -201t102 -106q-124 -27 -224 -27q-144 0 -214 47.5t-130 184.5l-53 121l-94 -111l-60 -72q-72 -88 -120 -122.5t-99 -34.5q-68 0 -129 34l-4 222q50 -33 107 -33q42 0 71 15t69 55.5t134 150.5l43 53l-131 283q-41 98 -65 138t-64 77h479
q1 -58 7.5 -84.5t33.5 -85.5l45 -104l35 45q96 133 169 189t148 56q54 0 103 -36v-220q-59 33 -109 33t-83 -26.5t-117 -133.5z" />
    <glyph glyph-name="y" unicode="y" horiz-adv-x="1175" 
d="M1190 1024l-201 -909q-35 -157 -71 -245t-93 -159q-67 -83 -172.5 -126.5t-236.5 -43.5q-182 0 -302 70.5t-120 177.5q0 72 49.5 118t126.5 46q85 0 152 -55q-54 -25 -54 -78q0 -38 35 -62t92 -24q66 0 109 34.5t74 112.5q15 37 57 219l14 72q-129 -141 -319 -141
q-118 0 -184 54t-66 151q0 66 22 161l72 322q25 127 25 158q0 54 -54 108q219 3 301 4q55 3 84.5 10t65.5 25l-125 -559q-20 -87 -20 -125q0 -66 75 -66q80 0 117.5 43.5t65.5 169.5l51 232q33 147 33 172q0 49 -62 94q221 2 311 4q59 3 87.5 9.5t60.5 25.5z" />
    <glyph glyph-name="z" unicode="z" horiz-adv-x="1032" 
d="M258 981h866l-661 -659h31q9 0 21.5 -1t31 -2t31.5 -2q71 -8 114 -8q142 0 297 66l-223 -385q-93 -8 -148 -8q-54 0 -253 16q-103 10 -197 10q-156 0 -274 -14l671 670q-73 8 -151 8q-96 0 -166.5 -18t-138.5 -58z" />
    <glyph glyph-name="braceleft" unicode="{" horiz-adv-x="690" 
d="M649 1178l-61 -277q-32 -141 -85.5 -207.5t-154.5 -91.5q65 -26 94 -67t29 -105q0 -59 -18 -135l-66 -301q-12 -47 -12 -68q0 -61 69 -61h58l-29 -133h-260q-131 0 -131 96q0 35 8 68l94 428q21 107 21 120q0 91 -142 105l27 115q100 -2 145.5 44t73.5 175l78 358
q24 100 34.5 132t27.5 50q22 22 57.5 29.5t122.5 7.5h227l-31 -133h-43q-66 0 -88.5 -26t-44.5 -123z" />
    <glyph glyph-name="bar" unicode="|" horiz-adv-x="505" 
d="M395 -512h-198v2048h198v-2048z" />
    <glyph glyph-name="braceright" unicode="}" horiz-adv-x="698" 
d="M90 -6l68 301q29 135 83 204t156 103q-66 20 -94.5 56.5t-28.5 101.5q0 61 17 141l61 277q15 76 15 94q0 34 -16 44.5t-66 10.5h-43l28 133h236q102 0 136 -13t34 -52q0 -33 -29 -154l-78 -358q-16 -72 -16 -119q0 -55 30.5 -76.5t108.5 -23.5l-26 -115
q-114 -13 -155 -55t-67 -170l-94 -428q-20 -89 -65 -126.5t-131 -37.5h-267l29 133h59q51 0 74.5 26t40.5 103z" />
    <glyph glyph-name="asciitilde" unicode="~" 
d="M1278 844q-36 -92 -66 -143.5t-69 -88.5q-38 -36 -96 -56.5t-109 -20.5q-81 0 -147.5 20t-153.5 72q-64 37 -123 37q-58 0 -96 -29t-78 -121l-133 88q51 131 82 178q41 66 113.5 103t142.5 37q128 0 219 -52q86 -49 122 -61t77 -12q27 0 43 1.5t36 8.5t34.5 20.5t31.5 38
t35 60.5z" />
    <glyph glyph-name="uni00A0" unicode="&#xa0;" horiz-adv-x="501" 
 />
    <glyph glyph-name="exclamdown" unicode="&#xa1;" horiz-adv-x="917" 
d="M489 -436h-464q34 46 63 145l209 653q20 71 20 95q0 15 -8 51h275q-20 -33 -27.5 -62.5t-15.5 -95.5l-58 -622q-6 -57 -6 -84q0 -45 12 -80zM516 1004q85 0 138 -54.5t53 -140.5q0 -93 -61 -152t-157 -59q-89 0 -138.5 47.5t-49.5 132.5q0 98 60.5 162t154.5 64z" />
    <glyph glyph-name="cent" unicode="&#xa2;" horiz-adv-x="1038" 
d="M864 1454l-41 -190q116 -6 189 -35l-19 -234q-62 56 -105.5 77.5t-96.5 21.5q-120 0 -197.5 -128t-77.5 -325q0 -118 47 -179t139 -61q73 0 148 35t174 115l-123 -258q-157 -62 -309 -70l-43 -196h-123l43 198q-160 22 -242 120t-82 265q0 149 62 286t170 228
q71 60 144.5 91.5t178.5 46.5l41 192h123z" />
    <glyph glyph-name="sterling" unicode="&#xa3;" 
d="M1167 358l-73 -340q-100 -38 -211 -38q-163 0 -299 86q-92 -54 -154.5 -74.5t-134.5 -20.5q-123 0 -200 60t-77 157q0 103 78 172.5t193 69.5q65 0 128 -18t154 -62q29 48 29 121q0 91 -57 213h-232l33 150h129q-55 110 -55 204q0 175 139.5 294.5t343.5 119.5
q168 0 350 -86l-51 -233q-124 127 -268 127q-61 0 -102.5 -38t-41.5 -94q0 -51 39 -145q24 -55 45 -111q10 -19 15 -38h246l-33 -150h-182q4 -35 4 -74q0 -99 -30 -176.5t-99 -161.5q51 -10 100 -10q161 0 274 96zM440 166q-69 60 -96 75t-65 15q-35 0 -58.5 -21t-23.5 -53
q0 -31 24 -50t62 -19q70 0 157 53z" />
    <glyph glyph-name="currency" unicode="&#xa4;" 
d="M1135 168l-164 164q-112 -68 -238 -68q-132 0 -239 70l-164 -166l-142 141l164 164q-67 110 -67 240q0 121 67 237l-164 164l142 141l164 -163q119 67 237 67q124 0 240 -67l164 163l141 -141l-164 -164q68 -115 68 -237q0 -128 -68 -240l164 -164zM729 934
q-88 0 -151.5 -66t-63.5 -155q0 -92 64 -158t155 -66t155 66t64 158t-64.5 156.5t-158.5 64.5z" />
    <glyph glyph-name="yen" unicode="&#xa5;" horiz-adv-x="1269" 
d="M1104 940h201l-29 -129h-266l-123 -170h352l-29 -129h-352l-45 -199q-25 -129 -25 -178q0 -34 11 -61t45 -74h-576q75 57 109 119t63 194l43 199h-350l29 129h350q-36 117 -55 170h-258l28 129h176q-144 324 -274 473q118 39 231 39q116 0 191.5 -54t138.5 -181
q20 -43 137 -330l240 356q55 83 55 111q0 33 -45 69h383q-103 -131 -131 -170z" />
    <glyph glyph-name="brokenbar" unicode="&#xa6;" horiz-adv-x="505" 
d="M395 666h-198v716h198v-716zM395 -358h-198v716h198v-716z" />
    <glyph glyph-name="section" unicode="&#xa7;" 
d="M82 -246v240q177 -162 381 -162q78 0 128 33.5t50 85.5q0 32 -17.5 61t-60.5 66q-12 10 -162 125q-115 90 -165 169.5t-50 172.5q0 117 66 208t186 142q-44 46 -63 90.5t-19 101.5q0 170 136.5 267.5t375.5 97.5q201 0 351 -61l-31 -252q-137 131 -273 131
q-67 0 -112 -34t-45 -85q0 -47 31.5 -89t109.5 -97q178 -126 240.5 -212.5t62.5 -205.5q0 -123 -59 -208t-182 -142q81 -87 81 -195q0 -70 -35 -136t-96 -110q-144 -106 -399 -106q-139 0 -234 23t-196 81zM834 571l-252 222q-40 -47 -56 -81t-16 -71t17 -62.5t75 -74.5
l221 -191q41 41 58.5 74.5t17.5 71.5q0 31 -15 56t-50 56z" />
    <glyph glyph-name="dieresis" unicode="&#xa8;" horiz-adv-x="1075" 
d="M479 1440q60 0 94.5 -35t34.5 -96q0 -72 -43.5 -118t-111.5 -46q-65 0 -102.5 37.5t-37.5 101.5q0 69 46.5 112.5t119.5 43.5zM885 1440q61 0 96 -35.5t35 -95.5q0 -72 -44 -118t-112 -46q-64 0 -101.5 37.5t-37.5 101.5q0 69 46 112.5t118 43.5z" />
    <glyph glyph-name="copyright" unicode="&#xa9;" horiz-adv-x="1613" 
d="M946 1452q188 0 340.5 -85t239 -235.5t86.5 -336.5q0 -166 -66 -318.5t-177.5 -263t-264.5 -176.5t-320 -66q-194 0 -348 84.5t-240.5 236t-86.5 341.5q0 167 66 318.5t178 261t267 174.5t326 65zM911 1337q-134 0 -259 -56.5t-216 -150.5t-145.5 -222.5t-54.5 -266.5
q0 -241 159 -398t402 -157q139 0 266 55.5t219.5 149.5t147.5 223.5t55 271.5q0 242 -161 396.5t-413 154.5zM1214 522l-110 -186q-105 -47 -232 -47q-188 0 -297.5 94.5t-109.5 255.5q0 139 72 252.5t198.5 177.5t280.5 64q105 0 211 -35l-21 -205q-46 58 -89 82t-103 24
q-112 0 -186 -97t-74 -245q0 -106 50.5 -166.5t139.5 -60.5q59 0 120 20.5t150 71.5z" />
    <glyph glyph-name="ordfeminine" unicode="&#xaa;" horiz-adv-x="854" 
d="M899 1196l-94 -422q-6 -30 -6 -49q0 -29 35 -29q20 0 67 17l-94 -133q-63 -27 -125 -27q-70 0 -108.5 32t-38.5 91q0 28 16 98l57 262q-30 15 -51 15q-59 0 -103 -77.5t-44 -180.5q0 -101 65 -101q10 0 31 6l-80 -133q-35 -12 -72 -12q-98 0 -156.5 63t-58.5 170
q0 84 38.5 164t105.5 135q118 97 297 97q37 0 145 -13q12 -2 43 -2q64 0 131 29z" />
    <glyph glyph-name="guillemotleft" unicode="&#xab;" horiz-adv-x="1046" 
d="M354 543l140 -318h-172l-236 318l291 295h211zM737 543l142 -318h-183l-241 318l342 295h215z" />
    <glyph glyph-name="logicalnot" unicode="&#xac;" 
d="M1241 412h-199v401h-798v199h997v-600z" />
    <glyph glyph-name="uni00AD" unicode="&#xad;" horiz-adv-x="747" 
d="M233 588h195q117 0 174 9t121 38l-186 -244h-99q-178 0 -245.5 -8t-149.5 -39z" />
    <glyph glyph-name="registered" unicode="&#xae;" horiz-adv-x="1613" 
d="M946 1452q188 0 340.5 -85t239 -235.5t86.5 -336.5q0 -166 -66 -318.5t-177.5 -263t-264.5 -176.5t-320 -66q-194 0 -348 84.5t-240.5 236t-86.5 341.5q0 167 66 318.5t178 261t267 174.5t326 65zM911 1337q-134 0 -259 -56.5t-216 -150.5t-145.5 -222.5t-54.5 -266.5
q0 -241 159 -398t402 -157q139 0 266 55.5t219.5 149.5t147.5 223.5t55 271.5q0 242 -161 396.5t-413 154.5zM793 307h-406q61 43 76.5 65.5t32.5 96.5l108 487q14 68 14 80q0 16 -9 31.5t-40 50.5h351q164 0 233 -28q45 -20 71.5 -65.5t26.5 -102.5q0 -53 -21.5 -101.5
t-58.5 -77.5q-24 -20 -52.5 -29.5t-78.5 -15.5l31 -75q60 -142 103 -213.5t88 -98.5q-73 -12 -150 -12q-88 0 -135.5 19t-77.5 66t-57 144l-39 142l-45 -201q-15 -69 -15 -80q0 -32 50 -82zM819 745h31q63 0 103 47t40 121q0 46 -27 65t-92 19z" />
    <glyph glyph-name="macron" unicode="&#xaf;" horiz-adv-x="1067" 
d="M399 1374h609l-37 -170h-609z" />
    <glyph glyph-name="degree" unicode="&#xb0;" 
d="M827 1452q138 0 238 -99.5t100 -236.5q0 -138 -100 -237t-240 -99q-143 0 -243.5 98.5t-100.5 237.5q0 141 100 238.5t246 97.5zM821 1294q-69 0 -118.5 -52t-49.5 -124q0 -74 50 -126t122 -52q69 0 118.5 52t49.5 124q0 75 -50 126.5t-122 51.5z" />
    <glyph glyph-name="plusminus" unicode="&#xb1;" 
d="M571 655h-399v199h399v385h199v-385h399v-199h-399v-385h-199v385zM172 0v199h997v-199h-997z" />
    <glyph glyph-name="twosuperior" unicode="&#xb2;" horiz-adv-x="907" 
d="M887 752l-103 -181h-723q88 84 375 373q127 125 166 176.5t39 91.5q0 34 -31.5 54t-83.5 20q-65 0 -121 -19t-133 -67l90 191q103 49 242 49q146 0 228.5 -58t82.5 -161q0 -65 -35.5 -131.5t-117.5 -151.5q-16 -17 -244 -233h51q106 0 168 9t150 38z" />
    <glyph glyph-name="threesuperior" unicode="&#xb3;" horiz-adv-x="907" 
d="M309 965l33 147q56 -12 107 -12q93 0 143.5 28.5t50.5 81.5q0 43 -37 69t-100 26q-98 0 -217 -78l96 192q95 21 195 21q168 0 256 -54.5t88 -158.5q0 -82 -53 -128t-173 -71q86 -23 127 -70.5t41 -123.5q0 -129 -121 -205t-327 -76q-130 0 -236 35l-39 180
q63 -43 117.5 -61.5t118.5 -18.5q95 0 151 41.5t56 110.5q0 131 -195 131q-29 0 -82 -6z" />
    <glyph glyph-name="acute" unicode="&#xb4;" horiz-adv-x="1075" 
d="M918 1544l169 -137l-485 -293l-123 23z" />
    <glyph glyph-name="mu" unicode="&#xb5;" horiz-adv-x="1234" 
d="M264 -438h-321l247 1157q25 127 25 158q0 55 -53 108q253 3 313 4q55 3 85.5 10t64.5 25l-138 -616q-20 -98 -20 -125q0 -31 19.5 -48.5t54.5 -17.5q61 0 104 43q23 23 38 60t30 110l65 289q25 127 25 158q0 52 -53 108q253 3 313 4q55 3 84.5 10t64.5 25l-149 -670
q-16 -76 -16 -114q0 -58 59 -58q35 0 102 21l-145 -189q-96 -41 -186 -41q-182 0 -211 160q-129 -160 -269 -160q-56 0 -102 33z" />
    <glyph glyph-name="paragraph" unicode="&#xb6;" horiz-adv-x="1445" 
d="M758 -356v1636q-120 -5 -179 -88t-59 -250q0 -124 47 -197.5t156 -117.5q-56 -13 -98 -13q-201 0 -331 117t-130 297q0 95 38 175.5t107 129.5q70 52 159 71t263 19h655q-59 -44 -75.5 -95t-16.5 -189v-1495h-227v1636h-86v-1636h-223z" />
    <glyph glyph-name="periodcentered" unicode="&#xb7;" horiz-adv-x="663" 
d="M365 713q85 0 134.5 -47.5t49.5 -130.5q0 -100 -59.5 -164t-153.5 -64q-88 0 -140.5 54t-52.5 143q0 92 62 150.5t160 58.5z" />
    <glyph glyph-name="cedilla" unicode="&#xb8;" horiz-adv-x="1067" 
d="M270 -389l-14 121q63 -35 135 -35q44 0 71 18t27 47q0 52 -81 52q-20 0 -64 -9l100 195h113l-57 -104h16q60 0 95.5 -32.5t35.5 -86.5q0 -82 -70 -130t-190 -48q-44 0 -117 12z" />
    <glyph glyph-name="onesuperior" unicode="&#xb9;" horiz-adv-x="907" 
d="M500 1212l-183 58q187 29 297 78t226 153l-170 -762q-11 -53 -11 -77t9.5 -42.5t38.5 -50.5h-426q55 43 76.5 75.5t35.5 94.5z" />
    <glyph glyph-name="ordmasculine" unicode="&#xba;" horiz-adv-x="806" 
d="M532 1182q154 0 237 -69t83 -198q0 -161 -109 -261.5t-284 -100.5q-160 0 -243 66.5t-83 195.5q0 169 108 268t291 99zM522 1051q-52 0 -89.5 -72.5t-37.5 -173.5q0 -121 70 -121q59 0 92 82q33 86 33 176q0 109 -68 109z" />
    <glyph glyph-name="guillemotright" unicode="&#xbb;" horiz-adv-x="1046" 
d="M717 520l-139 318h172l235 -318l-291 -295h-211zM334 520l-141 318h182l241 -318l-342 -295h-215z" />
    <glyph glyph-name="onequarter" unicode="&#xbc;" horiz-adv-x="2111" 
d="M442 1212l-182 58q187 29 296.5 77.5t225.5 153.5l-170 -762q-10 -48 -10 -77q0 -24 9 -43t38 -50h-426q56 43 78 76t35 94zM1432 1423h204l-964 -1423h-205zM1532 186h-473l551 668h338q-18 -23 -25 -39t-20 -70l-95 -426h33q86 0 162 43l-92 -176h-131l-4 -16
q-13 -54 -13 -82q0 -36 47 -88h-397q53 37 75.5 68t35.5 88zM1339 319h222l88 400z" />
    <glyph glyph-name="onehalf" unicode="&#xbd;" horiz-adv-x="2111" 
d="M465 1212l-182 58q187 29 296.5 77.5t225.5 153.5l-170 -762q-10 -48 -10 -77q0 -24 9 -43t38 -50h-426q55 43 76.5 75.5t35.5 94.5zM1440 1423h205l-965 -1423h-205zM1931 180l-102 -180h-723q92 86 375 373q123 122 164 175.5t41 92.5q0 34 -31.5 54t-83.5 20
q-67 0 -122 -18.5t-132 -67.5l92 192q103 49 242 49q145 0 227 -58t82 -159q0 -67 -34.5 -131t-117.5 -153q-51 -51 -243 -236h51q104 0 166 9t149 38z" />
    <glyph glyph-name="threequarters" unicode="&#xbe;" horiz-adv-x="2111" 
d="M309 965l33 147q56 -12 107 -12q93 0 143.5 28.5t50.5 81.5q0 43 -37 69t-100 26q-98 0 -217 -78l96 192q95 21 195 21q168 0 256 -54.5t88 -158.5q0 -82 -53 -128t-173 -71q86 -23 127 -70.5t41 -123.5q0 -129 -121 -205t-327 -76q-130 0 -236 35l-39 180
q63 -43 117.5 -61.5t118.5 -18.5q95 0 151 41.5t56 110.5q0 131 -195 131q-29 0 -82 -6zM1489 1423h203l-965 -1423h-203zM1587 186h-473l551 668h338q-15 -19 -23 -39t-20 -70l-94 -426h32q86 0 162 43l-94 -176h-131l-4 -16q-12 -52 -12 -82q0 -36 49 -88h-398
q53 37 74.5 67.5t36.5 88.5zM1397 319h221l88 400z" />
    <glyph glyph-name="questiondown" unicode="&#xbf;" horiz-adv-x="1067" 
d="M483 508h240q0 -129 -40.5 -193t-168.5 -141q-172 -111 -172 -237q0 -74 56.5 -123.5t142.5 -49.5q67 0 127.5 24.5t144.5 84.5l-102 -283q-149 -55 -330 -55q-212 0 -327 89t-115 253q0 169 114 283q50 53 246 153q116 59 152 90t36 70q0 17 -4 35zM653 1004
q85 0 138 -54.5t53 -140.5q0 -93 -60.5 -152t-156.5 -59q-89 0 -139 47.5t-50 132.5q0 98 60.5 162t154.5 64z" />
    <glyph glyph-name="Agrave" unicode="&#xc0;" horiz-adv-x="1396" 
d="M1083 1423l213 -1204q17 -102 32 -138.5t58 -80.5h-569q55 41 73.5 66t18.5 57q0 27 -6 61l-4 35l-29 205h-473l-82 -145q-88 -151 -88 -197q0 -17 10 -32.5t42 -49.5h-431q47 30 71.5 54.5t56 72.5t102.5 172l481 825q37 63 50.5 99.5t13.5 72.5q0 74 -70 127h530z
M508 623h332l-68 469zM584 1927l501 -332l-100 -61l-545 215z" />
    <glyph glyph-name="Aacute" unicode="&#xc1;" horiz-adv-x="1396" 
d="M1083 1423l213 -1204q17 -102 32 -138.5t58 -80.5h-569q55 41 73.5 66t18.5 57q0 27 -6 61l-4 35l-29 205h-473l-82 -145q-88 -151 -88 -197q0 -17 10 -32.5t42 -49.5h-431q47 30 71.5 54.5t56 72.5t102.5 172l481 825q37 63 50.5 99.5t13.5 72.5q0 74 -70 127h530z
M508 623h332l-68 469zM1225 1927l149 -172l-555 -217l-123 47z" />
    <glyph glyph-name="Acircumflex" unicode="&#xc2;" horiz-adv-x="1396" 
d="M1083 1423l213 -1204q17 -102 32 -138.5t58 -80.5h-569q55 41 73.5 66t18.5 57q0 27 -6 61l-4 35l-29 205h-473l-82 -145q-88 -151 -88 -197q0 -17 10 -32.5t42 -49.5h-431q47 30 71.5 54.5t56 72.5t102.5 172l481 825q37 63 50.5 99.5t13.5 72.5q0 74 -70 127h530z
M508 623h332l-68 469zM938 1917l362 -320l-77 -51l-334 129l-332 -127l-90 62z" />
    <glyph glyph-name="Atilde" unicode="&#xc3;" horiz-adv-x="1396" 
d="M1083 1423l213 -1204q17 -102 32 -138.5t58 -80.5h-569q55 41 73.5 66t18.5 57q0 27 -6 61l-4 35l-29 205h-473l-82 -145q-88 -151 -88 -197q0 -17 10 -32.5t42 -49.5h-431q47 30 71.5 54.5t56 72.5t102.5 172l481 825q37 63 50.5 99.5t13.5 72.5q0 74 -70 127h530z
M508 623h332l-68 469zM1368 1860l-12 -25q-70 -136 -126.5 -186t-139.5 -50q-36 0 -74.5 7t-153.5 34q-125 29 -196 29q-67 0 -112.5 -14t-98.5 -51q45 86 65.5 118t48.5 64q29 32 73.5 52t88.5 20q70 0 230 -41q124 -31 196 -31q66 0 112 16.5t99 57.5z" />
    <glyph glyph-name="Adieresis" unicode="&#xc4;" horiz-adv-x="1396" 
d="M1083 1423l213 -1204q17 -102 32 -138.5t58 -80.5h-569q55 41 73.5 66t18.5 57q0 27 -6 61l-4 35l-29 205h-473l-82 -145q-88 -151 -88 -197q0 -17 10 -32.5t42 -49.5h-431q47 30 71.5 54.5t56 72.5t102.5 172l481 825q37 63 50.5 99.5t13.5 72.5q0 74 -70 127h530z
M508 623h332l-68 469zM719 1892q66 0 104.5 -39t38.5 -106q0 -79 -48.5 -129.5t-125.5 -50.5q-70 0 -110.5 41t-40.5 112q0 77 50 124.5t132 47.5zM1133 1892q66 0 104.5 -39t38.5 -106q0 -79 -48.5 -129.5t-125.5 -50.5q-69 0 -110.5 41.5t-41.5 111.5q0 77 50.5 124.5
t132.5 47.5z" />
    <glyph glyph-name="Aring" unicode="&#xc5;" horiz-adv-x="1396" 
d="M1083 1423l213 -1204q17 -102 32 -138.5t58 -80.5h-569q55 41 73.5 66t18.5 57q0 27 -6 61l-4 35l-29 205h-473l-82 -145q-88 -151 -88 -197q0 -17 10 -32.5t42 -49.5h-431q47 30 71.5 54.5t56 72.5t102.5 172l481 825q37 63 50.5 99.5t13.5 72.5q0 74 -70 127h530z
M508 623h332l-68 469zM956 1970q100 0 161 -56.5t61 -148.5q0 -114 -73 -184t-190 -70q-104 0 -162.5 55.5t-58.5 153.5q0 109 73.5 179.5t188.5 70.5zM938 1841q-44 0 -74 -30t-30 -76q0 -42 26 -67.5t70 -25.5q46 0 75 31.5t29 81.5q0 41 -25 63.5t-71 22.5z" />
    <glyph glyph-name="AE" unicode="&#xc6;" horiz-adv-x="1746" 
d="M1759 1423l-71 -321q-16 56 -43 79t-85 31t-192 7l-82 -365h135q114 0 172 18l-71 -327q-15 66 -42 82t-120 16h-119l-90 -399q52 -25 103.5 -34t136.5 -9q118 0 190.5 25t173.5 102l-168 -328h-956q74 57 107.5 118.5t62.5 194.5l18 90h-356l-129 -167
q-84 -107 -84 -146q0 -34 47 -90h-447q16 15 26.5 25.5t23 23.5t22.5 23q22 25 23 26l73 95l803 1009q39 50 52.5 75t13.5 48q0 26 -18 49t-60 49h950zM604 590h258l125 520z" />
    <glyph glyph-name="Ccedilla" unicode="&#xc7;" horiz-adv-x="1292" 
d="M772 -29l-37 -65h21q70 0 112.5 -38.5t42.5 -103.5q0 -96 -83.5 -153t-223.5 -57q-64 0 -141 14l-19 143q76 -43 162 -43q53 0 85 21.5t32 58.5q0 59 -96 59q-32 0 -76 -8l90 176q-258 28 -401.5 186t-143.5 414q0 196 76.5 375.5t210.5 298.5q232 203 596 203
q99 0 176.5 -12.5t171.5 -44.5l-35 -301q-118 153 -301 153q-135 0 -245.5 -85t-173 -234.5t-62.5 -333.5q0 -197 90.5 -307.5t251.5 -110.5q91 0 181.5 32.5t226.5 115.5l-152 -275q-148 -69 -336 -78z" />
    <glyph glyph-name="Egrave" unicode="&#xc8;" horiz-adv-x="1097" 
d="M1108 1423l-70 -321q-10 34 -21.5 53.5t-30 34t-55.5 20t-83.5 8t-128.5 1.5l-82 -365h135q114 0 172 18l-72 -327q-15 66 -41.5 82t-119.5 16h-121l-88 -399q55 -25 105 -34t130 -9q121 0 193 25t174 102l-168 -328h-977q74 57 107.5 118.5t62.5 194.5l176 797
q27 120 27 178q0 33 -11 58t-47 77h834zM432 1927l502 -332l-100 -61l-545 215z" />
    <glyph glyph-name="Eacute" unicode="&#xc9;" horiz-adv-x="1097" 
d="M1108 1423l-70 -321q-10 34 -21.5 53.5t-30 34t-55.5 20t-83.5 8t-128.5 1.5l-82 -365h135q114 0 172 18l-72 -327q-15 66 -41.5 82t-119.5 16h-121l-88 -399q55 -25 105 -34t130 -9q121 0 193 25t174 102l-168 -328h-977q74 57 107.5 118.5t62.5 194.5l176 797
q27 120 27 178q0 33 -11 58t-47 77h834zM1059 1927l149 -172l-555 -217l-123 47z" />
    <glyph glyph-name="Ecircumflex" unicode="&#xca;" horiz-adv-x="1097" 
d="M1108 1423l-70 -321q-10 34 -21.5 53.5t-30 34t-55.5 20t-83.5 8t-128.5 1.5l-82 -365h135q114 0 172 18l-72 -327q-15 66 -41.5 82t-119.5 16h-121l-88 -399q55 -25 105 -34t130 -9q121 0 193 25t174 102l-168 -328h-977q74 57 107.5 118.5t62.5 194.5l176 797
q27 120 27 178q0 33 -11 58t-47 77h834zM772 1917l363 -320l-78 -51l-334 129l-332 -127l-90 62z" />
    <glyph glyph-name="Edieresis" unicode="&#xcb;" horiz-adv-x="1097" 
d="M1108 1423l-70 -321q-10 34 -21.5 53.5t-30 34t-55.5 20t-83.5 8t-128.5 1.5l-82 -365h135q114 0 172 18l-72 -327q-15 66 -41.5 82t-119.5 16h-121l-88 -399q55 -25 105 -34t130 -9q121 0 193 25t174 102l-168 -328h-977q74 57 107.5 118.5t62.5 194.5l176 797
q27 120 27 178q0 33 -11 58t-47 77h834zM567 1892q66 0 105 -39t39 -106q0 -79 -48.5 -129.5t-125.5 -50.5q-70 0 -111 41t-41 112q0 77 50 124.5t132 47.5zM981 1892q66 0 104.5 -39t38.5 -106q0 -79 -48.5 -129.5t-125.5 -50.5q-69 0 -110 41.5t-41 111.5q0 77 50 124.5
t132 47.5z" />
    <glyph glyph-name="Igrave" unicode="&#xcc;" horiz-adv-x="718" 
d="M549 0h-590q74 59 107.5 120t62.5 193l176 797q27 120 27 178q0 33 -11 58t-47 77h590q-75 -57 -108 -118t-62 -195l-176 -797q-26 -110 -26 -178q0 -34 11 -60t46 -75zM289 1927l502 -332l-101 -61l-545 215z" />
    <glyph glyph-name="Iacute" unicode="&#xcd;" horiz-adv-x="718" 
d="M549 0h-590q74 59 107.5 120t62.5 193l176 797q27 120 27 178q0 33 -11 58t-47 77h590q-75 -57 -108 -118t-62 -195l-176 -797q-26 -110 -26 -178q0 -34 11 -60t46 -75zM870 1927l150 -172l-555 -217l-123 47z" />
    <glyph glyph-name="Icircumflex" unicode="&#xce;" horiz-adv-x="718" 
d="M549 0h-590q74 59 107.5 120t62.5 193l176 797q27 120 27 178q0 33 -11 58t-47 77h590q-75 -57 -108 -118t-62 -195l-176 -797q-26 -110 -26 -178q0 -34 11 -60t46 -75zM649 1917l320 -320l-78 -51l-293 129l-287 -127l-90 62z" />
    <glyph glyph-name="Idieresis" unicode="&#xcf;" horiz-adv-x="718" 
d="M549 0h-590q74 59 107.5 120t62.5 193l176 797q27 120 27 178q0 33 -11 58t-47 77h590q-75 -57 -108 -118t-62 -195l-176 -797q-26 -110 -26 -178q0 -34 11 -60t46 -75zM473 1890q66 0 103.5 -37.5t37.5 -103.5q0 -78 -47.5 -128t-122.5 -50q-69 0 -109 40t-40 109
q0 75 50 122.5t128 47.5zM844 1890q66 0 103.5 -37.5t37.5 -103.5q0 -78 -47.5 -128t-122.5 -50q-69 0 -109 40t-40 109q0 75 50 122.5t128 47.5z" />
    <glyph glyph-name="Eth" unicode="&#xd0;" horiz-adv-x="1476" 
d="M211 684h-150l35 168h152l57 258q27 123 27 178q0 33 -11 58t-47 77h621q138 0 232 -21.5t165 -70.5q98 -64 149.5 -183t51.5 -280q0 -224 -93.5 -418.5t-256.5 -310.5q-106 -75 -232.5 -107t-318.5 -32h-633q75 59 108 119.5t62 193.5zM600 684l-106 -477
q75 -21 131 -21q124 0 228.5 97t165 264.5t60.5 365.5q0 340 -280 340q-35 0 -76 -10l-86 -391h281l-37 -168h-281z" />
    <glyph glyph-name="Ntilde" unicode="&#xd1;" horiz-adv-x="1460" 
d="M1235 137l68 -137q-60 -14 -127 -14q-74 0 -126 11t-97 36t-83.5 74.5t-75 117.5t-81.5 174l-238 559l-143 -645q-27 -132 -27 -178q0 -33 11.5 -60t45.5 -75h-417q74 59 107.5 120t62.5 193l176 797q26 116 26 178q0 69 -61 135h467q16 -61 63 -182l310 -747l137 616
q27 126 27 178q0 33 -11 59t-47 76h418q-74 -57 -107.5 -118.5t-62.5 -194.5zM1473 1860l-13 -25q-70 -136 -126.5 -186t-139.5 -50q-36 0 -73.5 7t-153.5 34q-125 29 -197 29q-67 0 -112.5 -14t-98.5 -51q44 84 65 117t50 65t73.5 52t88.5 20q69 0 229 -41q124 -31 197 -31
q66 0 112 16.5t99 57.5z" />
    <glyph glyph-name="Ograve" unicode="&#xd2;" horiz-adv-x="1490" 
d="M930 1452q277 0 430 -156q135 -135 135 -417q0 -201 -59 -370.5t-165.5 -287.5t-259.5 -184t-335 -66q-275 0 -422.5 149t-147.5 427q0 191 62.5 369.5t171.5 300.5q209 235 590 235zM883 1262q-154 0 -262 -252q-44 -105 -72.5 -252t-28.5 -275q0 -149 52.5 -235
t142.5 -86q167 0 274 268q40 101 65 244t25 266q0 322 -196 322zM676 1927l502 -332l-101 -61l-545 215z" />
    <glyph glyph-name="Oacute" unicode="&#xd3;" horiz-adv-x="1490" 
d="M930 1452q277 0 430 -156q135 -135 135 -417q0 -201 -59 -370.5t-165.5 -287.5t-259.5 -184t-335 -66q-275 0 -422.5 149t-147.5 427q0 191 62.5 369.5t171.5 300.5q209 235 590 235zM883 1262q-154 0 -262 -252q-44 -105 -72.5 -252t-28.5 -275q0 -149 52.5 -235
t142.5 -86q167 0 274 268q40 101 65 244t25 266q0 322 -196 322zM1257 1927l150 -172l-555 -217l-123 47z" />
    <glyph glyph-name="Ocircumflex" unicode="&#xd4;" horiz-adv-x="1490" 
d="M930 1452q277 0 430 -156q135 -135 135 -417q0 -201 -59 -370.5t-165.5 -287.5t-259.5 -184t-335 -66q-275 0 -422.5 149t-147.5 427q0 191 62.5 369.5t171.5 300.5q209 235 590 235zM883 1262q-154 0 -262 -252q-44 -105 -72.5 -252t-28.5 -275q0 -149 52.5 -235
t142.5 -86q167 0 274 268q40 101 65 244t25 266q0 322 -196 322zM1014 1917l362 -320l-78 -51l-333 129l-332 -127l-90 62z" />
    <glyph glyph-name="Otilde" unicode="&#xd5;" horiz-adv-x="1490" 
d="M930 1452q277 0 430 -156q135 -135 135 -417q0 -201 -59 -370.5t-165.5 -287.5t-259.5 -184t-335 -66q-275 0 -422.5 149t-147.5 427q0 191 62.5 369.5t171.5 300.5q209 235 590 235zM883 1262q-154 0 -262 -252q-44 -105 -72.5 -252t-28.5 -275q0 -149 52.5 -235
t142.5 -86q167 0 274 268q40 101 65 244t25 266q0 322 -196 322zM1432 1860l-13 -25q-70 -136 -126.5 -186t-139.5 -50q-36 0 -73.5 7t-153.5 34q-125 29 -197 29q-67 0 -112.5 -14t-98.5 -51q44 84 65 117t50 65t73.5 52t88.5 20q69 0 229 -41q124 -31 197 -31
q66 0 112 16.5t99 57.5z" />
    <glyph glyph-name="Odieresis" unicode="&#xd6;" horiz-adv-x="1490" 
d="M930 1452q277 0 430 -156q135 -135 135 -417q0 -201 -59 -370.5t-165.5 -287.5t-259.5 -184t-335 -66q-275 0 -422.5 149t-147.5 427q0 191 62.5 369.5t171.5 300.5q209 235 590 235zM883 1262q-154 0 -262 -252q-44 -105 -72.5 -252t-28.5 -275q0 -149 52.5 -235
t142.5 -86q167 0 274 268q40 101 65 244t25 266q0 322 -196 322zM797 1892q66 0 104.5 -39t38.5 -106q0 -79 -48.5 -129.5t-125.5 -50.5q-70 0 -111 41t-41 112q0 77 50.5 124.5t132.5 47.5zM1210 1892q66 0 105 -39t39 -106q0 -79 -48.5 -129.5t-125.5 -50.5
q-69 0 -110.5 41.5t-41.5 111.5q0 77 50 124.5t132 47.5z" />
    <glyph glyph-name="multiply" unicode="&#xd7;" 
d="M733 571l-311 -313l-141 141l311 314l-311 311l141 141l311 -313l314 313l139 -141l-312 -311l312 -314l-139 -141z" />
    <glyph glyph-name="Oslash" unicode="&#xd8;" horiz-adv-x="1529" 
d="M1638 1530l-229 -264q107 -139 107 -392q0 -266 -102.5 -472t-288 -318.5t-425.5 -112.5q-197 0 -344 84l-141 -161h-217l235 270q-106 138 -106 389q0 187 62 364t171 300q101 114 250.5 174.5t329.5 60.5q199 0 344 -80l137 158h217zM1071 1192q-58 82 -162 82
q-89 0 -159 -61.5t-132 -192.5q-49 -106 -78.5 -254t-29.5 -281q0 -29 2 -49zM1130 942v51l-559 -753q66 -90 166 -90q89 0 164.5 69.5t130.5 202.5q43 101 70.5 248t27.5 272z" />
    <glyph glyph-name="Ugrave" unicode="&#xd9;" horiz-adv-x="1482" 
d="M801 0l49 135q-102 -96 -184.5 -130t-214.5 -34q-159 0 -246 72q-47 38 -73 92.5t-26 114.5q0 56 27 178l152 682q26 121 26 178q0 34 -11 60t-46 75h590q-75 -57 -108 -118t-62 -195l-119 -530q-39 -182 -39 -244q0 -66 41 -102.5t113 -36.5q69 0 123.5 30.5t83.5 85.5
q27 51 61 195l133 602q27 117 27 178q0 33 -11.5 60t-46.5 75h590q-75 -57 -108 -118t-62 -195l-176 -797q-27 -120 -27 -178q0 -34 11.5 -61t46.5 -74h-514zM672 1927l502 -332l-101 -61l-545 215z" />
    <glyph glyph-name="Uacute" unicode="&#xda;" horiz-adv-x="1482" 
d="M801 0l49 135q-102 -96 -184.5 -130t-214.5 -34q-159 0 -246 72q-47 38 -73 92.5t-26 114.5q0 56 27 178l152 682q26 121 26 178q0 34 -11 60t-46 75h590q-75 -57 -108 -118t-62 -195l-119 -530q-39 -182 -39 -244q0 -66 41 -102.5t113 -36.5q69 0 123.5 30.5t83.5 85.5
q27 51 61 195l133 602q27 117 27 178q0 33 -11.5 60t-46.5 75h590q-75 -57 -108 -118t-62 -195l-176 -797q-27 -120 -27 -178q0 -34 11.5 -61t46.5 -74h-514zM1255 1927l150 -172l-555 -217l-123 47z" />
    <glyph glyph-name="Ucircumflex" unicode="&#xdb;" horiz-adv-x="1482" 
d="M801 0l49 135q-102 -96 -184.5 -130t-214.5 -34q-159 0 -246 72q-47 38 -73 92.5t-26 114.5q0 56 27 178l152 682q26 121 26 178q0 34 -11 60t-46 75h590q-75 -57 -108 -118t-62 -195l-119 -530q-39 -182 -39 -244q0 -66 41 -102.5t113 -36.5q69 0 123.5 30.5t83.5 85.5
q27 51 61 195l133 602q27 117 27 178q0 33 -11.5 60t-46.5 75h590q-75 -57 -108 -118t-62 -195l-176 -797q-27 -120 -27 -178q0 -34 11.5 -61t46.5 -74h-514zM1042 1917l363 -320l-78 -51l-334 129l-331 -127l-91 62z" />
    <glyph glyph-name="Udieresis" unicode="&#xdc;" horiz-adv-x="1482" 
d="M801 0l49 135q-102 -96 -184.5 -130t-214.5 -34q-159 0 -246 72q-47 38 -73 92.5t-26 114.5q0 56 27 178l152 682q26 121 26 178q0 34 -11 60t-46 75h590q-75 -57 -108 -118t-62 -195l-119 -530q-39 -182 -39 -244q0 -66 41 -102.5t113 -36.5q69 0 123.5 30.5t83.5 85.5
q27 51 61 195l133 602q27 117 27 178q0 33 -11.5 60t-46.5 75h590q-75 -57 -108 -118t-62 -195l-176 -797q-27 -120 -27 -178q0 -34 11.5 -61t46.5 -74h-514zM809 1892q66 0 104.5 -39t38.5 -106q0 -79 -48.5 -129.5t-125.5 -50.5q-70 0 -110.5 41t-40.5 112q0 77 50 124.5
t132 47.5zM1223 1892q66 0 104.5 -39t38.5 -106q0 -79 -48.5 -129.5t-125.5 -50.5q-69 0 -110.5 41.5t-41.5 111.5q0 77 50.5 124.5t132.5 47.5z" />
    <glyph glyph-name="Yacute" unicode="&#xdd;" horiz-adv-x="1245" 
d="M815 887l240 356q51 81 51 113t-41 67h383q-21 -27 -52 -67t-50 -64.5t-29 -38.5l-443 -612l-73 -328q-25 -129 -25 -178q0 -34 11 -61t44 -74h-575q75 57 109 119t63 194l72 326q-44 179 -164 421t-219 353q121 39 215 39q128 0 205 -52.5t141 -182.5q16 -33 137 -330z
M1155 1927l150 -172l-555 -217l-123 47z" />
    <glyph glyph-name="Thorn" unicode="&#xde;" horiz-adv-x="1253" 
d="M700 1139h64q154 0 239.5 -14.5t145.5 -51.5q57 -34 89 -102t32 -154q0 -210 -138 -341.5t-358 -131.5q-121 0 -223 43q65 3 105 18t73 46q56 56 88.5 146t32.5 189q0 183 -152 183h-22h-14l-144 -656q-26 -120 -26 -178q0 -34 11 -60t46 -75h-590q75 59 108 119.5
t62 193.5l176 797q27 123 27 178q0 33 -11 58t-47 77h590q-71 -54 -104.5 -112t-59.5 -172z" />
    <glyph glyph-name="germandbls" unicode="&#xdf;" horiz-adv-x="1300" 
d="M557 20l-70 185q104 -49 201 -49t153 50t56 138q0 99 -66 193q-14 20 -159 172q-35 38 -35 75q0 44 21.5 71t152.5 144q82 76 82 158q0 56 -29 89.5t-78 33.5q-30 0 -57.5 -14t-42.5 -37q-22 -34 -31 -65t-41 -183l-145 -657q-56 -249 -105.5 -388t-113.5 -223
q-138 -182 -387 -182q-100 0 -209 45l117 135q30 -28 69 -28q40 0 76 23.5t53 60.5q16 37 26 73.5t50 200.5l168 758h-145l186 190q23 115 58.5 183.5t101.5 127.5q160 144 411 144q190 0 296 -73t106 -204q0 -118 -101 -200q-39 -31 -64.5 -45t-141.5 -66q-35 -15 -35 -35
q0 -13 12 -21t76 -40q311 -144 311 -404q0 -172 -128.5 -277.5t-338.5 -105.5q-138 0 -260 47z" />
    <glyph glyph-name="agrave" unicode="&#xe0;" horiz-adv-x="1222" 
d="M621 174l-105 -184q-78 -17 -125 -17q-161 0 -254.5 97t-93.5 264q0 143 61 283.5t164 234.5q169 156 459 156h20h16t16 -0.5t13.5 -1l16.5 -1.5t17.5 -2t23 -3t26.5 -3t35 -4.5t41 -5.5q36 -4 68 -4q96 0 186 41l-153 -694q-13 -67 -13 -86q0 -64 68 -64q41 0 94 19
l-145 -187q-93 -41 -176 -41q-103 0 -159 49t-56 140q0 38 4 64.5t22 105.5l103 461q-57 34 -103 34q-41 0 -82 -25.5t-69 -68.5q-52 -79 -82.5 -181.5t-30.5 -199.5q0 -83 41.5 -131.5t112.5 -48.5q23 0 39 4zM463 1546l416 -395l-105 -41l-475 291z" />
    <glyph glyph-name="aacute" unicode="&#xe1;" horiz-adv-x="1222" 
d="M621 174l-105 -184q-78 -17 -125 -17q-161 0 -254.5 97t-93.5 264q0 143 61 283.5t164 234.5q169 156 459 156h20h16t16 -0.5t13.5 -1l16.5 -1.5t17.5 -2t23 -3t26.5 -3t35 -4.5t41 -5.5q36 -4 68 -4q96 0 186 41l-153 -694q-13 -67 -13 -86q0 -64 68 -64q41 0 94 19
l-145 -187q-93 -41 -176 -41q-103 0 -159 49t-56 140q0 38 4 64.5t22 105.5l103 461q-57 34 -103 34q-41 0 -82 -25.5t-69 -68.5q-52 -79 -82.5 -181.5t-30.5 -199.5q0 -83 41.5 -131.5t112.5 -48.5q23 0 39 4zM993 1544l170 -137l-485 -293l-123 23z" />
    <glyph glyph-name="acircumflex" unicode="&#xe2;" horiz-adv-x="1222" 
d="M621 174l-105 -184q-78 -17 -125 -17q-161 0 -254.5 97t-93.5 264q0 143 61 283.5t164 234.5q169 156 459 156h20h16t16 -0.5t13.5 -1l16.5 -1.5t17.5 -2t23 -3t26.5 -3t35 -4.5t41 -5.5q36 -4 68 -4q96 0 186 41l-153 -694q-13 -67 -13 -86q0 -64 68 -64q41 0 94 19
l-145 -187q-93 -41 -176 -41q-103 0 -159 49t-56 140q0 38 4 64.5t22 105.5l103 461q-57 34 -103 34q-41 0 -82 -25.5t-69 -68.5q-52 -79 -82.5 -181.5t-30.5 -199.5q0 -83 41.5 -131.5t112.5 -48.5q23 0 39 4zM831 1511l297 -354l-86 -49l-262 162l-274 -160l-96 57z" />
    <glyph glyph-name="atilde" unicode="&#xe3;" horiz-adv-x="1222" 
d="M621 174l-105 -184q-78 -17 -125 -17q-161 0 -254.5 97t-93.5 264q0 143 61 283.5t164 234.5q169 156 459 156h20h16t16 -0.5t13.5 -1l16.5 -1.5t17.5 -2t23 -3t26.5 -3t35 -4.5t41 -5.5q36 -4 68 -4q96 0 186 41l-153 -694q-13 -67 -13 -86q0 -64 68 -64q41 0 94 19
l-145 -187q-93 -41 -176 -41q-103 0 -159 49t-56 140q0 38 4 64.5t22 105.5l103 461q-57 34 -103 34q-41 0 -82 -25.5t-69 -68.5q-52 -79 -82.5 -181.5t-30.5 -199.5q0 -83 41.5 -131.5t112.5 -48.5q23 0 39 4zM389 1163q46 86 66.5 117t48.5 63q27 32 71.5 52t86.5 20
q35 0 59 -5.5t123 -35.5q92 -31 155 -31q105 0 201 74q-60 -116 -106 -178q-29 -37 -76 -59.5t-94 -22.5q-30 0 -55.5 6t-112.5 33q-103 33 -170 33q-100 0 -197 -66z" />
    <glyph glyph-name="adieresis" unicode="&#xe4;" horiz-adv-x="1222" 
d="M621 174l-105 -184q-78 -17 -125 -17q-161 0 -254.5 97t-93.5 264q0 143 61 283.5t164 234.5q169 156 459 156h20h16t16 -0.5t13.5 -1l16.5 -1.5t17.5 -2t23 -3t26.5 -3t35 -4.5t41 -5.5q36 -4 68 -4q96 0 186 41l-153 -694q-13 -67 -13 -86q0 -64 68 -64q41 0 94 19
l-145 -187q-93 -41 -176 -41q-103 0 -159 49t-56 140q0 38 4 64.5t22 105.5l103 461q-57 34 -103 34q-41 0 -82 -25.5t-69 -68.5q-52 -79 -82.5 -181.5t-30.5 -199.5q0 -83 41.5 -131.5t112.5 -48.5q23 0 39 4zM625 1440q60 0 94.5 -35t34.5 -96q0 -72 -44 -118t-112 -46
q-64 0 -101.5 37.5t-37.5 101.5q0 69 46.5 112.5t119.5 43.5zM1030 1440q61 0 96 -35.5t35 -95.5q0 -72 -43.5 -118t-111.5 -46q-65 0 -102.5 37.5t-37.5 101.5q0 69 46 112.5t118 43.5z" />
    <glyph glyph-name="aring" unicode="&#xe5;" horiz-adv-x="1222" 
d="M621 174l-105 -184q-78 -17 -125 -17q-161 0 -254.5 97t-93.5 264q0 143 61 283.5t164 234.5q169 156 459 156h20h16t16 -0.5t13.5 -1l16.5 -1.5t17.5 -2t23 -3t26.5 -3t35 -4.5t41 -5.5q36 -4 68 -4q96 0 186 41l-153 -694q-13 -67 -13 -86q0 -64 68 -64q41 0 94 19
l-145 -187q-93 -41 -176 -41q-103 0 -159 49t-56 140q0 38 4 64.5t22 105.5l103 461q-57 34 -103 34q-41 0 -82 -25.5t-69 -68.5q-52 -79 -82.5 -181.5t-30.5 -199.5q0 -83 41.5 -131.5t112.5 -48.5q23 0 39 4zM831 1563q100 0 161 -56.5t61 -150.5q0 -113 -72.5 -183.5
t-187.5 -70.5q-106 0 -165 55.5t-59 155.5q0 109 73.5 179.5t188.5 70.5zM813 1432q-44 0 -74 -30.5t-30 -74.5q0 -43 26.5 -68.5t69.5 -25.5q46 0 75 31.5t29 81.5q0 40 -25.5 63t-70.5 23z" />
    <glyph glyph-name="ae" unicode="&#xe6;" horiz-adv-x="1660" 
d="M1571 340l-66 -258q-190 -109 -446 -109q-191 0 -281 62t-90 194q0 41 4.5 71t26.5 128l80 360q-48 31 -101 31q-71 0 -133.5 -60t-99.5 -161t-37 -217q0 -100 41 -153.5t117 -53.5q13 0 43 6l-111 -188q-75 -19 -137 -19q-157 0 -247.5 99.5t-90.5 269.5
q0 142 54.5 272.5t154.5 225.5q174 168 426 168q104 0 262 -31q65 -12 96 -12q32 0 88 12q100 21 137 26t87 5q153 0 243 -58.5t90 -156.5q0 -97 -83 -184.5t-232 -145.5q-111 -44 -285 -60l-6 -41q-12 -58 -12 -96q0 -46 45.5 -76t114.5 -30q94 0 174 41.5t174 138.5z
M1112 537q97 23 161 86t64 135q0 29 -20 47t-51 18q-62 0 -92 -56t-62 -230z" />
    <glyph glyph-name="ccedilla" unicode="&#xe7;" horiz-adv-x="968" 
d="M494 -27l-43 -77h16q60 0 95.5 -32.5t35.5 -86.5q0 -82 -70 -130t-190 -48q-46 0 -117 12l-14 121q63 -35 135 -35q44 0 71 18t27 47q0 52 -82 52q-22 0 -63 -9l88 172q-172 25 -255 119t-83 266q0 135 51 255t138.5 206t210 135.5t260.5 49.5q137 0 216.5 -47.5
t79.5 -129.5q0 -67 -53 -112t-133 -45q-77 0 -123 35q43 35 43 71q0 20 -16.5 32.5t-42.5 12.5q-62 0 -119 -64t-91 -169.5t-34 -222.5q0 -100 48.5 -156.5t133.5 -56.5t162.5 31t165.5 100l-131 -254q-132 -57 -317 -60z" />
    <glyph glyph-name="egrave" unicode="&#xe8;" horiz-adv-x="1042" 
d="M954 340l-69 -266q-219 -101 -424 -101q-202 0 -312 95t-110 270q0 184 91 338t248.5 243t344.5 89q157 0 248.5 -59.5t91.5 -160.5q0 -93 -78.5 -180t-210.5 -141q-129 -51 -344 -72q2 -81 23 -139q15 -44 57 -71t96 -27q97 0 179.5 43.5t168.5 138.5zM446 528
q96 13 168 72q46 35 73.5 77t27.5 77q0 25 -20 41t-50 16q-70 0 -124.5 -77t-74.5 -206zM426 1552l416 -395l-105 -41l-475 291z" />
    <glyph glyph-name="eacute" unicode="&#xe9;" horiz-adv-x="1042" 
d="M952 340l-69 -266q-219 -101 -424 -101q-202 0 -312 95t-110 270q0 184 91 338t248.5 243t344.5 89q157 0 248.5 -59.5t91.5 -160.5q0 -93 -78.5 -180t-210.5 -141q-129 -51 -344 -72q2 -81 23 -139q15 -44 57 -71t96 -27q97 0 179.5 43.5t168.5 138.5zM444 528
q96 13 168 72q46 35 73.5 77t27.5 77q0 25 -20 41t-50 16q-70 0 -124.5 -77t-74.5 -206zM930 1544l170 -137l-486 -293l-122 23z" />
    <glyph glyph-name="ecircumflex" unicode="&#xea;" horiz-adv-x="1042" 
d="M952 340l-69 -266q-219 -101 -424 -101q-202 0 -312 95t-110 270q0 184 91 338t248.5 243t344.5 89q157 0 248.5 -59.5t91.5 -160.5q0 -93 -78.5 -180t-210.5 -141q-129 -51 -344 -72q2 -81 23 -139q15 -44 57 -71t96 -27q97 0 179.5 43.5t168.5 138.5zM444 528
q96 13 168 72q46 35 73.5 77t27.5 77q0 25 -20 41t-50 16q-70 0 -124.5 -77t-74.5 -206zM770 1511l297 -354l-86 -49l-262 162l-275 -160l-96 57z" />
    <glyph glyph-name="edieresis" unicode="&#xeb;" horiz-adv-x="1042" 
d="M954 340l-69 -266q-219 -101 -424 -101q-202 0 -312 95t-110 270q0 184 91 338t248.5 243t344.5 89q157 0 248.5 -59.5t91.5 -160.5q0 -93 -78.5 -180t-210.5 -141q-129 -51 -344 -72q2 -81 23 -139q15 -44 57 -71t96 -27q97 0 179.5 43.5t168.5 138.5zM446 528
q96 13 168 72q46 35 73.5 77t27.5 77q0 25 -20 41t-50 16q-70 0 -124.5 -77t-74.5 -206zM520 1440q60 0 94.5 -35t34.5 -96q0 -72 -43.5 -118t-111.5 -46q-65 0 -102.5 37.5t-37.5 101.5q0 69 46.5 112.5t119.5 43.5zM926 1440q61 0 96 -35.5t35 -95.5q0 -72 -44 -118
t-112 -46q-65 0 -102 37.5t-37 101.5q0 69 46 112.5t118 43.5z" />
    <glyph glyph-name="igrave" unicode="&#xec;" horiz-adv-x="647" 
d="M623 1024l-154 -694q-14 -60 -14 -88q0 -62 63 -62q33 0 86 19l-145 -187q-90 -41 -185 -41q-94 0 -143 49.5t-49 143.5q0 35 4 61t23 105l86 389q24 114 24 158q0 52 -53 108q244 3 307 4q55 3 85.5 10t64.5 25zM174 1546l416 -395l-105 -41l-475 291z" />
    <glyph glyph-name="iacute" unicode="&#xed;" horiz-adv-x="647" 
d="M623 1024l-154 -694q-14 -60 -14 -88q0 -62 63 -62q33 0 86 19l-145 -187q-90 -41 -185 -41q-94 0 -143 49.5t-49 143.5q0 35 4 61t23 105l86 389q24 114 24 158q0 52 -53 108q244 3 307 4q55 3 85.5 10t64.5 25zM705 1544l169 -137l-485 -293l-123 23z" />
    <glyph glyph-name="icircumflex" unicode="&#xee;" horiz-adv-x="647" 
d="M496 1511l256 -354l-86 -49l-220 162l-233 -160l-96 57zM623 1024l-154 -694q-14 -60 -14 -88q0 -62 63 -62q33 0 86 19l-145 -187q-90 -41 -185 -41q-94 0 -143 49.5t-49 143.5q0 35 4 61t23 105l86 389q24 114 24 158q0 52 -53 108q244 3 307 4q55 3 85.5 10t64.5 25z
" />
    <glyph glyph-name="idieresis" unicode="&#xef;" horiz-adv-x="647" 
d="M623 1024l-154 -694q-14 -60 -14 -88q0 -62 63 -62q33 0 86 19l-145 -187q-90 -41 -185 -41q-94 0 -143 49.5t-49 143.5q0 35 4 61t23 105l86 389q24 114 24 158q0 52 -53 108q244 3 307 4q55 3 85.5 10t64.5 25zM295 1440q60 0 94.5 -35t34.5 -96q0 -72 -44 -118
t-112 -46q-64 0 -101.5 37.5t-37.5 101.5q0 69 46.5 112.5t119.5 43.5zM643 1440q61 0 96 -35t35 -96q0 -72 -44 -118t-112 -46q-64 0 -101.5 37.5t-37.5 101.5q0 69 46 112.5t118 43.5z" />
    <glyph glyph-name="eth" unicode="&#xf0;" horiz-adv-x="1202" 
d="M729 1174l-166 -93l-49 90l191 105q-10 38 -37 106l143 78q41 -42 76 -82l176 97l49 -89l-162 -92q102 -148 158.5 -328t56.5 -356q0 -167 -69 -310t-191 -228q-143 -99 -354 -99q-243 0 -367.5 107.5t-124.5 314.5q0 165 70 306t190 223t261 82q101 0 180 -54
q-9 133 -31 222zM666 825q-61 0 -114.5 -63.5t-84.5 -171t-31 -232.5q0 -202 123 -202q107 0 166 157q26 65 42.5 155.5t16.5 162.5q0 194 -118 194z" />
    <glyph glyph-name="ntilde" unicode="&#xf1;" horiz-adv-x="1243" 
d="M627 1024l-35 -158q84 87 146.5 119.5t146.5 32.5q120 0 197 -72t77 -182q0 -60 -22 -156l-62 -278q-12 -64 -12 -86q0 -64 61 -64q33 0 86 19l-145 -187q-93 -41 -172 -41q-96 0 -150.5 50.5t-54.5 138.5q0 38 3.5 59.5t23.5 110.5l57 258q16 71 16 106q0 37 -24 58.5
t-64 21.5q-68 0 -110 -54t-70 -177l-51 -230q-31 -152 -31 -202q0 -49 33 -111h-504q56 53 83.5 114t58.5 199l90 406q24 117 24 158q0 52 -53 108q192 0 307 2q54 3 84 10.5t66 26.5zM397 1163q46 86 66.5 117t48.5 63q27 32 71.5 52t86.5 20q35 0 59 -5.5t123 -35.5
q92 -31 156 -31q104 0 200 74q-60 -116 -106 -178q-29 -37 -76 -59.5t-94 -22.5q-30 0 -55.5 6t-112.5 33q-103 33 -170 33q-100 0 -197 -66z" />
    <glyph glyph-name="ograve" unicode="&#xf2;" horiz-adv-x="1202" 
d="M682 1008q231 0 355 -110t124 -314q0 -155 -68.5 -292.5t-187.5 -219.5q-143 -99 -354 -99q-243 0 -367.5 106.5t-124.5 313.5q0 141 52.5 267t144.5 208q158 140 426 140zM666 825q-61 0 -114.5 -63.5t-84.5 -171t-31 -232.5q0 -202 123 -202q107 0 166 157
q26 67 42.5 156.5t16.5 161.5q0 194 -118 194zM451 1546l415 -395l-104 -41l-475 291z" />
    <glyph glyph-name="oacute" unicode="&#xf3;" horiz-adv-x="1202" 
d="M682 1008q231 0 355 -110t124 -314q0 -155 -68.5 -292.5t-187.5 -219.5q-143 -99 -354 -99q-243 0 -367.5 106.5t-124.5 313.5q0 141 52.5 267t144.5 208q158 140 426 140zM666 825q-61 0 -114.5 -63.5t-84.5 -171t-31 -232.5q0 -202 123 -202q107 0 166 157
q26 67 42.5 156.5t16.5 161.5q0 194 -118 194zM981 1544l170 -137l-485 -293l-123 23z" />
    <glyph glyph-name="ocircumflex" unicode="&#xf4;" horiz-adv-x="1202" 
d="M682 1008q231 0 355 -110t124 -314q0 -155 -68.5 -292.5t-187.5 -219.5q-143 -99 -354 -99q-243 0 -367.5 106.5t-124.5 313.5q0 141 52.5 267t144.5 208q158 140 426 140zM666 825q-61 0 -114.5 -63.5t-84.5 -171t-31 -232.5q0 -202 123 -202q107 0 166 157
q26 67 42.5 156.5t16.5 161.5q0 194 -118 194zM760 1511l297 -354l-86 -49l-262 162l-275 -160l-96 57z" />
    <glyph glyph-name="otilde" unicode="&#xf5;" horiz-adv-x="1202" 
d="M682 1008q231 0 355 -110t124 -314q0 -155 -68.5 -292.5t-187.5 -219.5q-143 -99 -354 -99q-243 0 -367.5 106.5t-124.5 313.5q0 141 52.5 267t144.5 208q158 140 426 140zM666 825q-61 0 -114.5 -63.5t-84.5 -171t-31 -232.5q0 -202 123 -202q107 0 166 157
q26 67 42.5 156.5t16.5 161.5q0 194 -118 194zM334 1163q46 86 66.5 117t48.5 63t71.5 52t85.5 20q35 0 59 -5.5t123 -35.5q92 -31 156 -31q105 0 201 74q-58 -111 -107 -178q-29 -37 -76 -59.5t-94 -22.5q-30 0 -55.5 6t-112.5 33q-103 33 -170 33q-99 0 -196 -66z" />
    <glyph glyph-name="odieresis" unicode="&#xf6;" horiz-adv-x="1202" 
d="M682 1008q231 0 355 -110t124 -314q0 -155 -68.5 -292.5t-187.5 -219.5q-143 -99 -354 -99q-243 0 -367.5 106.5t-124.5 313.5q0 141 52.5 267t144.5 208q158 140 426 140zM666 825q-61 0 -114.5 -63.5t-84.5 -171t-31 -232.5q0 -202 123 -202q107 0 166 157
q26 67 42.5 156.5t16.5 161.5q0 194 -118 194zM543 1440q60 0 94.5 -35t34.5 -96q0 -72 -44 -118t-112 -46q-64 0 -101.5 37.5t-37.5 101.5q0 69 46.5 112.5t119.5 43.5zM948 1440q61 0 96 -35.5t35 -95.5q0 -72 -43.5 -118t-111.5 -46q-65 0 -102.5 37.5t-37.5 101.5
q0 69 46 112.5t118 43.5z" />
    <glyph glyph-name="divide" unicode="&#xf7;" 
d="M236 612v199h997v-199h-997zM735 477q69 0 118.5 -50.5t49.5 -119.5q0 -71 -49.5 -120.5t-120.5 -49.5t-120.5 50t-49.5 122q0 69 50.5 118.5t121.5 49.5zM735 1284q69 0 118.5 -50.5t49.5 -119.5q0 -70 -49.5 -120t-120.5 -50t-120.5 50t-49.5 122q0 69 50.5 118.5
t121.5 49.5z" />
    <glyph glyph-name="oslash" unicode="&#xf8;" horiz-adv-x="1202" 
d="M932 965l110 127h179l-174 -201q114 -117 114 -311q0 -152 -68.5 -289t-185.5 -219q-147 -99 -354 -99q-153 0 -266 43l-109 -125h-178l172 199q-113 107 -113 305q0 140 52.5 265.5t144.5 207.5q161 140 418 140q151 0 258 -43zM821 668l-372 -486q38 -41 104 -41
q126 0 197 164q31 70 51 166.5t20 173.5v23zM401 313l373 488q-42 39 -100 39q-65 0 -120 -47t-93 -136q-26 -59 -44 -146t-18 -151q0 -27 2 -47z" />
    <glyph glyph-name="ugrave" unicode="&#xf9;" horiz-adv-x="1228" 
d="M1202 203l-143 -189q-96 -41 -182 -41q-185 0 -211 160q-132 -160 -318 -160q-110 0 -184 71.5t-74 178.5q0 36 16 117l84 379q27 126 27 158q0 53 -55 108q238 3 309 4q55 3 84.5 10t65.5 25l-138 -616q-20 -92 -20 -123q0 -68 74 -68q85 0 127 64q30 50 51 149l63 289
q25 125 25 158q0 52 -53 108q241 3 309 4q55 3 84 9.5t65 25.5l-149 -670q-17 -73 -17 -116q0 -56 60 -56q36 0 100 21zM465 1546l416 -395l-105 -41l-475 291z" />
    <glyph glyph-name="uacute" unicode="&#xfa;" horiz-adv-x="1228" 
d="M1202 203l-143 -189q-96 -41 -182 -41q-185 0 -211 160q-132 -160 -318 -160q-110 0 -184 71.5t-74 178.5q0 36 16 117l84 379q27 126 27 158q0 53 -55 108q238 3 309 4q55 3 84.5 10t65.5 25l-138 -616q-20 -92 -20 -123q0 -68 74 -68q85 0 127 64q30 50 51 149l63 289
q25 125 25 158q0 52 -53 108q241 3 309 4q55 3 84 9.5t65 25.5l-149 -670q-17 -73 -17 -116q0 -56 60 -56q36 0 100 21zM995 1544l170 -137l-485 -293l-123 23z" />
    <glyph glyph-name="ucircumflex" unicode="&#xfb;" horiz-adv-x="1228" 
d="M1202 203l-143 -189q-96 -41 -182 -41q-185 0 -211 160q-132 -160 -318 -160q-110 0 -184 71.5t-74 178.5q0 36 16 117l84 379q27 126 27 158q0 53 -55 108q238 3 309 4q55 3 84.5 10t65.5 25l-138 -616q-20 -92 -20 -123q0 -68 74 -68q85 0 127 64q30 50 51 149l63 289
q25 125 25 158q0 52 -53 108q241 3 309 4q55 3 84 9.5t65 25.5l-149 -670q-17 -73 -17 -116q0 -56 60 -56q36 0 100 21zM786 1511l297 -354l-86 -49l-262 162l-274 -160l-96 57z" />
    <glyph glyph-name="udieresis" unicode="&#xfc;" horiz-adv-x="1228" 
d="M1202 203l-143 -189q-96 -41 -182 -41q-185 0 -211 160q-132 -160 -318 -160q-110 0 -184 71.5t-74 178.5q0 36 16 117l84 379q27 126 27 158q0 53 -55 108q238 3 309 4q55 3 84.5 10t65.5 25l-138 -616q-20 -92 -20 -123q0 -68 74 -68q85 0 127 64q30 50 51 149l63 289
q25 125 25 158q0 52 -53 108q241 3 309 4q55 3 84 9.5t65 25.5l-149 -670q-17 -73 -17 -116q0 -56 60 -56q36 0 100 21zM584 1440q60 0 94.5 -35t34.5 -96q0 -72 -44 -118t-112 -46q-65 0 -102 37.5t-37 101.5q0 69 46.5 112.5t119.5 43.5zM989 1440q61 0 96 -35.5t35 -95.5
q0 -72 -43.5 -118t-111.5 -46q-65 0 -102.5 37.5t-37.5 101.5q0 69 46 112.5t118 43.5z" />
    <glyph glyph-name="yacute" unicode="&#xfd;" horiz-adv-x="1175" 
d="M1190 1024l-201 -909q-35 -157 -71 -245t-93 -159q-67 -83 -172.5 -126.5t-236.5 -43.5q-182 0 -302 70.5t-120 177.5q0 72 49.5 118t126.5 46q85 0 152 -55q-54 -25 -54 -78q0 -38 35 -62t92 -24q66 0 109 34.5t74 112.5q15 37 57 219l14 72q-129 -141 -319 -141
q-118 0 -184 54t-66 151q0 66 22 161l72 322q25 127 25 158q0 54 -54 108q219 3 301 4q55 3 84.5 10t65.5 25l-125 -559q-20 -87 -20 -125q0 -66 75 -66q80 0 117.5 43.5t65.5 169.5l51 232q33 147 33 172q0 49 -62 94q221 2 311 4q59 3 87.5 9.5t60.5 25.5zM969 1544
l170 -137l-486 -293l-123 23z" />
    <glyph glyph-name="thorn" unicode="&#xfe;" horiz-adv-x="1230" 
d="M512 47l-29 195q50 -31 99 -31q96 0 147 94q68 130 68 311q0 73 -30 114.5t-83 41.5q-68 0 -105.5 -64.5t-78.5 -252.5l-129 -580q-31 -148 -31 -203q0 -48 33 -110h-504q55 51 82.5 112t58.5 201l283 1280q26 124 26 158q0 55 -53 108q311 2 366 10q40 6 91 31
l-131 -596q57 74 125 108t160 34q149 0 228 -93.5t79 -267.5q0 -121 -37 -236t-105 -208q-137 -189 -370 -189q-90 0 -160 33z" />
    <glyph glyph-name="ydieresis" unicode="&#xff;" horiz-adv-x="1175" 
d="M1190 1024l-201 -909q-35 -157 -71 -245t-93 -159q-67 -83 -172.5 -126.5t-236.5 -43.5q-182 0 -302 70.5t-120 177.5q0 72 49.5 118t126.5 46q85 0 152 -55q-54 -25 -54 -78q0 -38 35 -62t92 -24q66 0 109 34.5t74 112.5q15 37 57 219l14 72q-129 -141 -319 -141
q-118 0 -184 54t-66 151q0 66 22 161l72 322q25 127 25 158q0 54 -54 108q219 3 301 4q55 3 84.5 10t65.5 25l-125 -559q-20 -87 -20 -125q0 -66 75 -66q80 0 117.5 43.5t65.5 169.5l51 232q33 147 33 172q0 49 -62 94q221 2 311 4q59 3 87.5 9.5t60.5 25.5zM543 1440
q60 0 94.5 -35t34.5 -96q0 -72 -44 -118t-112 -46q-64 0 -101.5 37.5t-37.5 101.5q0 69 46.5 112.5t119.5 43.5zM948 1440q61 0 96 -35.5t35 -95.5q0 -72 -43.5 -118t-111.5 -46q-65 0 -102.5 37.5t-37.5 101.5q0 69 46 112.5t118 43.5z" />
    <glyph glyph-name="dotlessi" unicode="&#x131;" horiz-adv-x="647" 
d="M623 1024l-154 -694q-14 -60 -14 -88q0 -62 63 -62q33 0 86 19l-145 -187q-90 -41 -185 -41q-94 0 -143 49.5t-49 143.5q0 35 4 61t23 105l86 389q24 114 24 158q0 52 -53 108q244 3 307 4q55 3 85.5 10t64.5 25z" />
    <glyph glyph-name="Lslash" unicode="&#x141;" horiz-adv-x="1091" 
d="M903 0h-944q74 57 107.5 118.5t62.5 194.5l45 201l-182 -106l45 200l180 107l88 395q27 123 27 178q0 33 -11 58t-47 77h590q-75 -57 -108 -118t-62 -195l-45 -199l359 211l-45 -200l-357 -211l-104 -467q85 -43 217 -43q107 0 180.5 27t171.5 102z" />
    <glyph glyph-name="lslash" unicode="&#x142;" horiz-adv-x="690" 
d="M788 1022l-36 -170l-164 -94l-94 -428q-15 -68 -15 -86q0 -64 64 -64q33 0 86 19l-146 -187q-93 -41 -178 -41q-94 0 -146.5 51t-52.5 140q0 55 25 168l57 258l-153 -90l37 168l155 90l88 399q25 116 25 158q0 52 -53 108q312 2 367 10q40 6 89 31l-118 -536z" />
    <glyph glyph-name="OE" unicode="&#x152;" horiz-adv-x="1923" 
d="M1935 1423l-71 -321q-16 56 -43 79t-85 31t-192 7l-80 -365h133q115 0 175 18l-74 -327q-15 66 -42 82t-120 16h-119l-90 -399q54 -25 105.5 -34t134.5 -9q118 0 190.5 25t173.5 102l-168 -328h-878q-111 -29 -223 -29q-270 0 -413 148t-143 430q0 190 61 367.5
t169 300.5q97 111 243 173t310 62q99 0 244 -29h802zM874 1268q-72 0 -135 -59.5t-110 -174.5q-48 -115 -76.5 -263t-28.5 -282q0 -333 191 -333q180 0 282 272q40 108 66.5 254t26.5 262q0 154 -56.5 239t-159.5 85z" />
    <glyph glyph-name="oe" unicode="&#x153;" horiz-adv-x="1763" 
d="M1673 340l-69 -266q-209 -101 -416 -101q-189 0 -305 80q-77 -43 -154 -61.5t-180 -18.5q-242 0 -366 106.5t-124 315.5q0 140 52.5 265.5t144.5 207.5q158 140 420 140q123 0 212.5 -28t162.5 -89q181 117 391 117q156 0 248 -60t92 -160q0 -92 -79 -179.5t-210 -141.5
q-127 -49 -344 -72q5 -92 22 -139q15 -44 57.5 -71t96.5 -27q97 0 180 43.5t168 138.5zM668 825q-95 0 -163.5 -137.5t-68.5 -329.5q0 -202 123 -202q112 0 176 157q28 66 46 157t18 165q0 190 -131 190zM1165 528q94 15 170 72q46 35 73.5 77t27.5 77q0 25 -20 41t-50 16
q-70 0 -125.5 -77.5t-75.5 -205.5z" />
    <glyph glyph-name="Scaron" unicode="&#x160;" horiz-adv-x="1103" 
d="M1100 1384l-17 -282q-109 92 -181.5 126t-160.5 34q-77 0 -122.5 -34t-45.5 -91q0 -60 41.5 -108t200.5 -175q129 -103 177 -184.5t48 -198.5q0 -217 -163.5 -358.5t-413.5 -141.5q-235 0 -410 82l-39 293q134 -101 228 -142.5t192 -41.5t158.5 48t60.5 126
q0 66 -39 116.5t-184 170.5q-135 112 -186 196t-51 191q0 202 153.5 322t413.5 120q177 0 340 -68zM811 1788l336 129l86 -64l-469 -305l-363 318l80 51z" />
    <glyph glyph-name="scaron" unicode="&#x161;" horiz-adv-x="960" 
d="M915 958l-28 -227q-141 109 -260 109q-51 0 -83 -22.5t-32 -59.5q0 -63 96 -115q107 -59 143 -84t66 -61q55 -61 55 -160q0 -161 -131 -263t-340 -102q-196 0 -356 54l2 243q69 -67 144 -98t169 -31q69 0 111.5 25t42.5 65q0 56 -100 107q-105 53 -145.5 81t-73.5 70
q-56 71 -56 162q0 164 127 260.5t342 96.5q170 0 307 -50zM649 1346l279 161l94 -61l-420 -340l-297 352l86 47z" />
    <glyph glyph-name="Ydieresis" unicode="&#x178;" horiz-adv-x="1245" 
d="M815 887l240 356q51 81 51 113t-41 67h383q-21 -27 -52 -67t-50 -64.5t-29 -38.5l-443 -612l-73 -328q-25 -129 -25 -178q0 -34 11 -61t44 -74h-575q75 57 109 119t63 194l72 326q-44 179 -164 421t-219 353q121 39 215 39q128 0 205 -52.5t141 -182.5q16 -33 137 -330z
M672 1892q66 0 104.5 -39t38.5 -106q0 -79 -48.5 -129.5t-125.5 -50.5q-70 0 -111 41t-41 112q0 77 50.5 124.5t132.5 47.5zM1085 1892q66 0 105 -39t39 -106q0 -79 -48.5 -129.5t-125.5 -50.5q-69 0 -110.5 41.5t-41.5 111.5q0 77 50 124.5t132 47.5z" />
    <glyph glyph-name="Zcaron" unicode="&#x17d;" horiz-adv-x="1267" 
d="M1063 0h-1149q5 8 30.5 42.5t45.5 63.5q7 11 26.5 37.5t28.5 40.5l748 1041q-65 8 -115 8q-236 0 -447 -133l160 323h1004l-17 -20l-57 -84l-29 -41l-760 -1059q81 -8 160 -8q186 0 312 34t258 120zM936 1788l336 129l86 -64l-469 -305l-363 318l80 51z" />
    <glyph glyph-name="zcaron" unicode="&#x17e;" horiz-adv-x="1032" 
d="M258 981h866l-661 -659h31q9 0 21.5 -1t31 -2t31.5 -2q71 -8 114 -8q142 0 297 66l-223 -385q-93 -8 -148 -8q-54 0 -253 16q-103 10 -197 10q-156 0 -274 -14l671 670q-73 8 -151 8q-96 0 -166.5 -18t-138.5 -58zM705 1346l278 161l94 -61l-420 -340l-297 352l86 47z
" />
    <glyph glyph-name="florin" unicode="&#x192;" horiz-adv-x="1210" 
d="M924 995h258l-52 -149h-258l-229 -662q-63 -185 -124 -299.5t-144 -201.5q-66 -72 -162.5 -113t-198.5 -41q-114 0 -209 49l129 131q40 -28 78 -28q80 0 129 94q24 49 40 89.5t75 209.5l266 772h-139l192 158q41 124 86 196t117 131q148 121 371 121q130 0 240 -37
l-183 -217q-19 39 -42 56.5t-58 17.5q-47 0 -79.5 -35.5t-61.5 -120.5z" />
    <glyph glyph-name="circumflex" unicode="&#x2c6;" horiz-adv-x="1075" 
d="M694 1511l297 -354l-86 -49l-262 162l-274 -160l-97 57z" />
    <glyph glyph-name="caron" unicode="&#x2c7;" horiz-adv-x="1075" 
d="M682 1346l279 161l94 -61l-420 -340l-297 352l86 47z" />
    <glyph glyph-name="uni02C9" unicode="&#x2c9;" horiz-adv-x="1067" 
d="M399 1374h609l-37 -170h-609z" />
    <glyph glyph-name="breve" unicode="&#x2d8;" horiz-adv-x="1075" 
d="M346 1411l100 55q76 -151 236 -151q169 0 256 147l92 -51q-43 -123 -137.5 -194.5t-214.5 -71.5q-123 0 -209 69t-123 197z" />
    <glyph glyph-name="dotaccent" unicode="&#x2d9;" horiz-adv-x="1075" 
d="M682 1454q66 0 104.5 -38.5t38.5 -104.5q0 -79 -48.5 -130t-123.5 -51q-70 0 -110.5 41.5t-40.5 110.5q0 76 50 124t130 48z" />
    <glyph glyph-name="ring" unicode="&#x2da;" horiz-adv-x="1075" 
d="M707 1563q100 0 160.5 -56.5t60.5 -150.5q0 -113 -72.5 -183.5t-187.5 -70.5q-106 0 -165 55.5t-59 155.5q0 109 74 179.5t189 70.5zM688 1432q-44 0 -74 -30.5t-30 -74.5q0 -43 26.5 -68.5t69.5 -25.5q46 0 75 31.5t29 81.5q0 40 -25.5 63t-70.5 23z" />
    <glyph glyph-name="ogonek" unicode="&#x2db;" horiz-adv-x="1067" 
d="M571 0h134q-72 -43 -111 -95.5t-39 -105.5q0 -32 20 -50.5t54 -18.5q5 0 37 4l-72 -113q-20 -4 -45 -4q-81 0 -127.5 37t-46.5 100q0 68 52 133.5t144 112.5z" />
    <glyph glyph-name="tilde" unicode="&#x2dc;" horiz-adv-x="1075" 
d="M270 1163q46 86 66.5 117t48.5 63q27 32 71.5 52t86.5 20q35 0 59 -5.5t123 -35.5q92 -31 156 -31q104 0 200 74q-60 -116 -106 -178q-29 -37 -76 -59.5t-94 -22.5q-30 0 -55.5 6t-112.5 33q-103 33 -170 33q-100 0 -197 -66z" />
    <glyph glyph-name="hungarumlaut" unicode="&#x2dd;" horiz-adv-x="1067" 
d="M709 1544l172 -114l-435 -320l-118 12zM1100 1544l172 -114l-434 -320l-119 12z" />
    <glyph glyph-name="uni03A9" unicode="&#x3a9;" horiz-adv-x="1648" 
d="M1544 0h-639v305q111 96 171.5 205.5t60.5 263.5q0 151 -85 251.5t-227 100.5q-139 0 -233 -99t-94 -267q0 -78 20 -148.5t56 -127t71.5 -97t81.5 -82.5v-305h-641v305h348q-348 186 -348 545q0 131 52.5 243.5t147 193t233 126t304.5 45.5q183 0 325.5 -50t228 -135
t128.5 -191t43 -226q0 -186 -95 -323.5t-267 -227.5h358v-305z" />
    <glyph glyph-name="uni03BC" unicode="&#x3bc;" horiz-adv-x="1234" 
d="M264 -438h-321l247 1157q25 127 25 158q0 55 -53 108q253 3 313 4q55 3 85.5 10t64.5 25l-138 -616q-20 -98 -20 -125q0 -31 19.5 -48.5t54.5 -17.5q61 0 104 43q23 23 38 60t30 110l65 289q25 127 25 158q0 52 -53 108q253 3 313 4q55 3 84.5 10t64.5 25l-149 -670
q-16 -76 -16 -114q0 -58 59 -58q35 0 102 21l-145 -189q-96 -41 -186 -41q-182 0 -211 160q-129 -160 -269 -160q-56 0 -102 33z" />
    <glyph glyph-name="pi" unicode="&#x3c0;" horiz-adv-x="1650" 
d="M1489 266l61 -233q-91 -56 -260 -56q-96 0 -166.5 29.5t-110.5 82.5t-58.5 117.5t-18.5 143.5v408h-201v-428q0 -219 -51 -330h-389q59 137 59 358v400q-46 0 -104 -15t-92 -38q-10 25 -52 119.5t-49 111.5q51 35 151 61.5t226 26.5h1096v-266h-213v-350q0 -78 20 -121
t72 -43q36 0 80 22z" />
    <glyph glyph-name="endash" unicode="&#x2013;" horiz-adv-x="933" 
d="M233 588h381q116 0 172.5 9t122.5 38l-186 -244h-285q-178 0 -245.5 -8t-149.5 -39z" />
    <glyph glyph-name="emdash" unicode="&#x2014;" horiz-adv-x="1249" 
d="M233 588h697q116 0 172.5 9t122.5 38l-187 -244h-600q-178 0 -245.5 -8t-149.5 -39z" />
    <glyph glyph-name="quoteleft" unicode="&#x2018;" horiz-adv-x="626" 
d="M584 1452l139 -27q-207 -73 -262 -213q174 -24 174 -190q0 -97 -60 -157t-155 -60q-83 0 -135 49t-52 127q0 139 101 274t250 197z" />
    <glyph glyph-name="quoteright" unicode="&#x2019;" horiz-adv-x="626" 
d="M334 805l-139 26q100 32 168 87t94 124q-174 27 -174 193q0 97 60 157t155 60q84 0 135 -48.5t51 -127.5q0 -141 -101 -276.5t-249 -194.5z" />
    <glyph glyph-name="quotesinglbase" unicode="&#x201a;" horiz-adv-x="626" 
d="M98 -258l-139 27q210 73 262 213q-174 24 -174 190q0 97 60 157t155 60q85 0 136 -48t51 -128q0 -140 -100.5 -275t-250.5 -196z" />
    <glyph glyph-name="quotedblleft" unicode="&#x201c;" horiz-adv-x="1112" 
d="M582 1452l139 -27q-207 -73 -262 -213q174 -24 174 -190q0 -97 -60 -157t-155 -60q-83 0 -135 49t-52 127q0 139 101 274t250 197zM1067 1452l139 -27q-212 -73 -262 -213q174 -24 174 -190q0 -97 -60 -157t-155 -60q-83 0 -134.5 49t-51.5 127q0 139 100.5 274
t249.5 197z" />
    <glyph glyph-name="quotedblright" unicode="&#x201d;" horiz-adv-x="1112" 
d="M334 805l-139 26q100 32 168 87t94 124q-174 27 -174 193q0 97 60 157t155 60q84 0 135 -48.5t51 -127.5q0 -141 -101 -276.5t-249 -194.5zM819 805l-139 26q99 32 168 87.5t94 123.5q-174 27 -174 193q0 97 60 157t155 60q83 0 134.5 -49t51.5 -127q0 -92 -46 -186.5
t-126.5 -170.5t-177.5 -114z" />
    <glyph glyph-name="quotedblbase" unicode="&#x201e;" horiz-adv-x="1112" 
d="M98 -258l-139 27q210 73 262 213q-174 24 -174 190q0 97 60 157t155 60q85 0 136 -48t51 -128q0 -140 -100.5 -275t-250.5 -196zM584 -258l-140 27q210 74 263 213q-175 24 -175 190q0 96 60 156.5t156 60.5q83 0 134.5 -49t51.5 -127q0 -139 -100.5 -274t-249.5 -197z
" />
    <glyph glyph-name="dagger" unicode="&#x2020;" 
d="M737 -328h-442q54 33 74 74.5t51 177.5l174 793h-182q-96 0 -133.5 -11t-85.5 -51l75 340q26 -44 65.5 -59.5t125.5 -15.5h180l61 270q17 83 17 123q0 34 -10.5 57.5t-38.5 52.5h442q-56 -36 -68 -55q-14 -25 -24 -59q-6 -24 -17.5 -66.5t-15.5 -56.5l-59 -266h207
q77 0 110 11t80 52l-76 -340q-35 47 -63 60.5t-94 13.5h-209l-179 -813q-16 -63 -16 -113q0 -35 11.5 -61.5t39.5 -57.5z" />
    <glyph glyph-name="daggerdbl" unicode="&#x2021;" 
d="M809 401h207q75 0 107.5 11t82.5 53l-76 -340q-36 49 -63 61.5t-94 12.5h-207l-68 -295q-14 -79 -14 -113q0 -36 11 -62.5t40 -56.5h-442q54 35 73 74.5t52 177.5l59 275h-182q-98 0 -135 -10.5t-84 -51.5l76 342q26 -46 65.5 -62t124.5 -16h180l72 316h-184
q-96 0 -135 -11t-85 -51l76 340q26 -44 66 -59.5t125 -15.5h180l61 270q17 91 17 127q0 31 -10.5 54t-38.5 52h442q-56 -36 -68 -55q-16 -26 -32 -90l-25 -92l-59 -266h206q77 0 110.5 11t80.5 52l-76 -340q-35 47 -63.5 60.5t-94.5 13.5h-208z" />
    <glyph glyph-name="bullet" unicode="&#x2022;" horiz-adv-x="1423" 
d="M772 1020q118 0 204.5 -87.5t86.5 -207.5q0 -123 -86.5 -210t-208.5 -87q-123 0 -210 86.5t-87 208.5q0 124 87.5 210.5t213.5 86.5z" />
    <glyph glyph-name="ellipsis" unicode="&#x2026;" horiz-adv-x="1990" 
d="M291 385q85 0 134.5 -48t49.5 -130q0 -100 -59.5 -163.5t-153.5 -63.5q-88 0 -140 53.5t-52 142.5q0 92 61.5 150.5t159.5 58.5zM954 385q85 0 135 -48t50 -130q0 -100 -59.5 -163.5t-153.5 -63.5q-88 0 -140.5 53.5t-52.5 142.5q0 92 61.5 150.5t159.5 58.5zM1618 385
q85 0 134.5 -48t49.5 -130q0 -100 -59.5 -163.5t-153.5 -63.5q-88 0 -140 53.5t-52 142.5q0 92 61.5 150.5t159.5 58.5z" />
    <glyph glyph-name="perthousand" unicode="&#x2030;" horiz-adv-x="2246" 
d="M559 1438q124 0 191 -66t67 -188q0 -172 -106 -284t-267 -112q-128 0 -201 68t-73 188q0 94 39 179t108 139q94 76 242 76zM526 1296q-54 0 -94.5 -79.5t-40.5 -184.5q0 -45 20.5 -70.5t55.5 -25.5q57 0 94 76t37 192q0 41 -20 66.5t-52 25.5zM1217 1423h186l-995 -1423
h-187zM1190 635q125 0 191.5 -65.5t66.5 -188.5q0 -172 -106 -283.5t-267 -111.5q-127 0 -200.5 69t-73.5 189q0 93 39 177t108 138q94 76 242 76zM1157 494q-54 0 -94.5 -80t-40.5 -183q0 -46 20.5 -72t55.5 -26q56 0 93.5 76t37.5 190q0 43 -20 69t-52 26zM1919 635
q125 0 191.5 -65.5t66.5 -188.5q0 -170 -106 -282.5t-267 -112.5q-128 0 -201 68.5t-73 189.5q0 93 39 177t108 138q91 76 242 76zM1886 494q-54 0 -94.5 -80t-40.5 -185q0 -45 20.5 -70.5t55.5 -25.5q56 0 93.5 76t37.5 190q0 43 -20 69t-52 26z" />
    <glyph glyph-name="guilsinglleft" unicode="&#x2039;" horiz-adv-x="661" 
d="M354 543l140 -318h-172l-236 318l291 295h211z" />
    <glyph glyph-name="guilsinglright" unicode="&#x203a;" horiz-adv-x="661" 
d="M332 520l-142 318h175l235 -318l-291 -295h-211z" />
    <glyph glyph-name="fraction" unicode="&#x2044;" horiz-adv-x="299" 
d="M582 1423h204l-966 -1423h-203z" />
    <glyph glyph-name="Euro" unicode="&#x20ac;" 
d="M1391 1395l-35 -301q-56 77 -136 121.5t-139 44.5q-222 0 -333 -357h426l-29 -125h-430q-19 -89 -23 -112h432l-28 -125h-418q-10 -82 -10 -158q0 -62 20 -107t52.5 -68t64.5 -33.5t65 -10.5q103 0 210 38t243 122l-152 -275q-172 -78 -372 -78q-98 0 -191 24t-157 68
q-183 131 -183 445v33h-166l29 125h148q6 55 18 112h-145l28 125h150q84 245 272 397q92 74 223 113t254 39q144 0 312 -57z" />
    <glyph glyph-name="litre" unicode="&#x2113;" horiz-adv-x="1155" 
d="M1012 98q-70 -56 -168 -95.5t-203 -39.5q-164 0 -254 94q-49 49 -73.5 132t-24.5 159v45q-19 -16 -56 -47.5t-55 -46.5q-15 27 -45 82.5t-45 83.5q120 104 201 172v342q0 110 24 202t71 162t124 109t176 39q139 0 212 -82.5t73 -202.5q0 -139 -69.5 -261t-203.5 -251
l-71 -71v-205q0 -111 33.5 -157t95.5 -46q82 0 157 70q96 -177 101 -187zM764 1159q0 80 -59 80q-38 0 -59 -47t-21 -113v-211q3 4 15 16.5t17 18.5q52 59 79.5 128t27.5 128z" />
    <glyph glyph-name="trademark" unicode="&#x2122;" horiz-adv-x="1759" 
d="M905 1434l-78 -174q-36 31 -57.5 41t-54.5 10h-51l-101 -457l-10 -41q-4 -24 -4 -29q0 -21 31 -55l12 -16h-354q50 36 67 55q14 20 29 86l100 455q-23 4 -51 4q-87 0 -164 -51l88 174q47 -13 113 -13h325q101 0 160 11zM1260 694l-37 27q-57 39 -76.5 67t-32.5 97
l-53 241l-76 -260q-18 -58 -18 -82q0 -22 26 -57l13 -14h-261q54 44 66 57q10 14 27 68l125 407q28 94 28 107q0 28 -37 71h275q-2 -10 -2 -24q0 -31 14 -84l6 -31l60 -266l159 262q3 5 19 32.5t24 43.5q7 13 35 67h295q-47 -38 -59.5 -60.5t-18.5 -78.5l-41 -428
q-4 -40 -4 -55q0 -24 9.5 -41t39.5 -47h-348q46 38 57.5 59t18.5 82l27 270z" />
    <glyph glyph-name="Omega" unicode="&#x2126;" horiz-adv-x="1648" 
d="M1544 0h-639v305q111 96 171.5 205.5t60.5 263.5q0 151 -85 251.5t-227 100.5q-139 0 -233 -99t-94 -267q0 -78 20 -148.5t56 -127t71.5 -97t81.5 -82.5v-305h-641v305h348q-348 186 -348 545q0 131 52.5 243.5t147 193t233 126t304.5 45.5q183 0 325.5 -50t228 -135
t128.5 -191t43 -226q0 -186 -95 -323.5t-267 -227.5h358v-305z" />
    <glyph glyph-name="estimated" unicode="&#x212e;" horiz-adv-x="1468" 
d="M1366 655h-1010v-452q154 -148 359 -148q89 0 164 22t133 64.5t102.5 93t87.5 119.5q6 -4 34 -21.5t44 -25.5q-52 -79 -103.5 -135.5t-119 -103t-153 -70t-189.5 -23.5q-188 0 -335 93t-224.5 247.5t-77.5 341.5q0 141 44.5 264.5t126 216t203.5 146t269 53.5t269 -54
t203 -147t126 -217t47 -264zM1081 735v375q-70 67 -165 107t-195 40q-220 0 -365 -145v-377h725z" />
    <glyph glyph-name="partialdiff" unicode="&#x2202;" horiz-adv-x="1372" 
d="M1280 911q0 -206 -53 -379q-84 -271 -246 -414t-397 -143q-216 0 -351 126.5t-135 314.5q0 115 30.5 212.5t82 164t119.5 113.5t141.5 69t149.5 22q94 0 168 -32t116 -88h4q4 23 4 67q0 130 -64 209.5t-192 79.5q-110 0 -219 -68q-25 80 -71 240q57 44 155.5 72t210.5 28
q139 0 245.5 -46t171.5 -128.5t97.5 -188t32.5 -231.5zM862 635q-38 115 -145 115q-67 0 -123 -51t-86.5 -129t-30.5 -162q0 -71 35 -111.5t94 -40.5q65 0 119.5 56.5t86.5 139t50 183.5z" />
    <glyph glyph-name="Delta" unicode="&#x2206;" horiz-adv-x="1488" 
d="M1501 0h-1460v150q81 214 241.5 642t241.5 642h506q78 -214 235.5 -642t235.5 -642v-150zM1049 305q-15 43 -250 709q-9 26 -16 55t-12 57l-5 27h-10q-22 -98 -35 -133q-42 -119 -126 -357.5t-126 -357.5h580z" />
    <glyph glyph-name="product" unicode="&#x220f;" horiz-adv-x="1720" 
d="M1573 -471h-389v1573h-647v-1573h-387v1905h1423v-1905z" />
    <glyph glyph-name="summation" unicode="&#x2211;" horiz-adv-x="1497" 
d="M1411 -471h-1376v213q135 158 635 750q-119 140 -341 404t-263 312v226h1304v-306h-788q219 -266 514 -628q-91 -110 -272.5 -333t-272.5 -333h860v-305z" />
    <glyph glyph-name="minus" unicode="&#x2212;" 
d="M236 612v199h997v-199h-997z" />
    <glyph glyph-name="uni2215" unicode="&#x2215;" horiz-adv-x="299" 
d="M582 1423h204l-966 -1423h-203z" />
    <glyph glyph-name="uni2219" unicode="&#x2219;" horiz-adv-x="663" 
d="M365 713q85 0 134.5 -47.5t49.5 -130.5q0 -100 -59.5 -164t-153.5 -64q-88 0 -140.5 54t-52.5 143q0 92 62 150.5t160 58.5z" />
    <glyph glyph-name="radical" unicode="&#x221a;" horiz-adv-x="1310" 
d="M1303 1493l-498 -1518h-244q-135 286 -278 592q-23 -13 -67 -38.5t-66 -39.5q-16 28 -47 84.5t-46 85.5q71 44 204 124t169 102q49 -111 144 -322.5t108 -240.5q62 195 189 586t190 585h242z" />
    <glyph glyph-name="infinity" unicode="&#x221e;" horiz-adv-x="1896" 
d="M1774 602q0 -184 -117.5 -294.5t-298.5 -110.5q-121 0 -229.5 56t-182.5 161h-4q-65 -91 -176.5 -154t-235.5 -63q-187 0 -305.5 108t-118.5 289q0 184 120.5 292.5t299.5 108.5q125 0 233 -58.5t183 -160.5h4q63 89 169 154t237 65q188 0 305 -109.5t117 -283.5z
M1501 596q0 66 -44.5 111t-129.5 45q-137 0 -246 -156q108 -158 254 -158q76 0 121 46t45 112zM799 596q-115 158 -252 158q-72 0 -120 -44.5t-48 -111.5q0 -70 48.5 -115t129.5 -45q65 0 129 43t113 115z" />
    <glyph glyph-name="integral" unicode="&#x222b;" horiz-adv-x="1144" 
d="M975 1233q-48 24 -107 24q-56 0 -91.5 -37.5t-35.5 -113.5v-1124q0 -228 -114 -352t-332 -124q-63 0 -133.5 12t-108.5 31q56 208 70 263q56 -25 104 -25q60 0 95.5 39t35.5 113v1118q0 233 110 357t329 124q75 0 146.5 -13.5t107.5 -31.5q-47 -166 -76 -260z" />
    <glyph glyph-name="approxequal" unicode="&#x2248;" 
d="M1219 866q-68 -93 -142.5 -140.5t-175.5 -47.5q-121 0 -239 65q-108 68 -201 68q-41 0 -80.5 -24.5t-61.5 -49.5t-49 -63l-131 149q68 91 139.5 139t176.5 48q119 0 237 -64q124 -69 203 -69q58 0 104 38.5t88 100.5zM1219 393q-68 -93 -142 -139.5t-176 -46.5
q-126 0 -239 65q-115 68 -201 68q-41 0 -80.5 -24.5t-61.5 -50.5t-49 -64l-131 151q68 91 139.5 139t176.5 48q119 0 237 -64q118 -69 203 -69q58 0 104 38.5t88 100.5z" />
    <glyph glyph-name="notequal" unicode="&#x2260;" 
d="M1161 274h-545l-116 -229h-217l114 229h-198v199h301l137 277h-438v198h538l131 260h217l-131 -260h207v-198h-307l-137 -277h444v-199z" />
    <glyph glyph-name="lessequal" unicode="&#x2264;" 
d="M1161 0h-962v199h962v-199zM1161 291l-962 389v176l962 389v-209l-690 -266v-4l690 -268v-207z" />
    <glyph glyph-name="greaterequal" unicode="&#x2265;" 
d="M1161 0h-962v199h962v-199zM1161 680l-962 -389v211l690 266v4l-690 266v209l962 -391v-176z" />
    <glyph glyph-name="lozenge" unicode="&#x25ca;" 
d="M1223 717q-324 -480 -482 -717h-168q-80 119 -240.5 357.5t-240.5 357.5q80 120 240.5 359.5t240.5 359.5h168q158 -237 482 -717zM954 717q-215 323 -297 448q-58 -89 -172 -259t-127 -189q283 -424 299 -449q114 175 297 449z" />
    <glyph glyph-name="zero.oldstyle" unicode="&#xf730;" horiz-adv-x="1325" 
d="M727 1012q123 0 229.5 -36t176.5 -102q129 -117 129 -339q0 -265 -172 -415.5t-474 -150.5q-218 0 -362 101q-93 66 -136.5 155.5t-43.5 214.5q0 262 177 417t476 155zM715 819q-106 0 -177 -126t-71 -312q0 -103 41.5 -161t114.5 -58q106 0 175.5 123.5t69.5 312.5
q0 221 -153 221z" />
    <glyph glyph-name="one.oldstyle" unicode="&#xf731;" horiz-adv-x="806" 
d="M295 655l-232 78q248 43 400 119t317 238l-182 -818q-27 -118 -27 -155q0 -31 15 -56.5t53 -60.5h-590q78 47 104.5 91.5t57.5 180.5z" />
    <glyph glyph-name="two.oldstyle" unicode="&#xf732;" horiz-adv-x="1232" 
d="M1147 266l-143 -266h-1053q155 102 414 293q196 142 263.5 215.5t67.5 142.5q0 56 -48 93.5t-118 37.5q-147 0 -368 -116l121 270q180 76 376 76q200 0 320.5 -94t120.5 -250q0 -132 -93.5 -237t-334.5 -241q190 3 279.5 17.5t195.5 58.5z" />
    <glyph glyph-name="three.oldstyle" unicode="&#xf733;" horiz-adv-x="1204" 
d="M176 242l47 204q81 -16 152 -16q157 0 245.5 57t88.5 158q0 79 -63 126.5t-167 47.5q-152 0 -309 -104l127 264q115 33 297 33q250 0 382 -88.5t132 -255.5q0 -84 -39 -156t-108 -113q-53 -31 -107 -45t-145 -20q72 -18 109.5 -33.5t72.5 -42.5q115 -89 115 -258
q0 -215 -184.5 -341t-499.5 -126q-198 0 -363 55l-45 248q82 -58 162 -84t178 -26q158 0 255 78t97 206q0 117 -82.5 177.5t-240.5 60.5q-39 0 -107 -6z" />
    <glyph glyph-name="four.oldstyle" unicode="&#xf734;" horiz-adv-x="1363" 
d="M883 -436h-353l97 436h-680l792 981h475q-16 -36 -26.5 -73.5t-50.5 -200.5l-115 -517h31q83 0 136.5 14.5t133.5 57.5l-135 -262h-207zM670 190l131 594l-467 -594h336z" />
    <glyph glyph-name="five.oldstyle" unicode="&#xf735;" horiz-adv-x="1204" 
d="M1020 616h-623l-47 -204q102 22 230 22q221 0 345 -97.5t124 -270.5q0 -101 -40 -200t-108 -165q-79 -81 -209 -124.5t-289 -43.5q-207 0 -399 80l-61 274q128 -84 213 -115.5t184 -31.5q136 0 222.5 74t86.5 190t-88 184t-239 68q-101 0 -201 -31l172 770
q77 -10 186 -10h352q177 0 316 39z" />
    <glyph glyph-name="six.oldstyle" unicode="&#xf736;" horiz-adv-x="1355" 
d="M1288 1452l-80 -164q-227 0 -403 -139q-143 -116 -229.5 -314t-86.5 -411q0 -121 43 -186.5t123 -65.5q94 0 156.5 107.5t62.5 267.5q0 92 -44.5 144t-124.5 52q-43 0 -103 -24l100 164q72 28 177 28q183 0 289 -105.5t106 -287.5q0 -157 -80 -279.5t-224.5 -190.5
t-328.5 -68q-257 0 -404 132.5t-147 364.5q0 212 114.5 413t313.5 337q316 216 770 225z" />
    <glyph glyph-name="seven.oldstyle" unicode="&#xf737;" horiz-adv-x="1208" 
d="M283 985h1028l-797 -1237q-43 -68 -43 -100q0 -29 37 -86h-557l797 1208q-162 12 -236 12q-138 0 -221.5 -18t-153.5 -64z" />
    <glyph glyph-name="eight.oldstyle" unicode="&#xf738;" horiz-adv-x="1378" 
d="M1057 772q107 -70 157 -154.5t50 -193.5q0 -217 -166.5 -335t-472.5 -118q-266 0 -411.5 100t-145.5 283q0 139 82 235t260 163q-64 64 -91.5 127.5t-27.5 148.5q0 200 152 312t425 112q227 0 354.5 -89t127.5 -249q0 -72 -26.5 -137t-74.5 -111q-34 -33 -76 -53
t-116 -41zM922 860q131 77 131 207q0 86 -50.5 139.5t-132.5 53.5q-73 0 -119 -42t-46 -110q0 -72 51 -130t166 -118zM530 645q-88 -43 -126.5 -98t-38.5 -137q0 -110 73.5 -177t194.5 -67q98 0 157.5 44t59.5 116q0 55 -32 97t-124 109q-117 84 -164 113z" />
    <glyph glyph-name="nine.oldstyle" unicode="&#xf739;" horiz-adv-x="1378" 
d="M88 -461l82 164q232 3 403 141q141 114 227.5 312t86.5 411q0 121 -43 186.5t-123 65.5q-94 0 -156.5 -107t-62.5 -266q0 -94 45 -145t127 -51q47 0 102 22l-100 -163q-83 -29 -180 -29q-149 0 -256 82q-71 56 -104.5 130.5t-33.5 180.5q0 157 80 279.5t224.5 191
t328.5 68.5q258 0 404.5 -133t146.5 -365q0 -212 -114.5 -413t-313.5 -337q-316 -216 -770 -225z" />
    </font>
</defs>
</svg>
